<mxfile host="app.diagrams.net" agent="Mozilla/5.0 (Macintosh; Intel Mac OS X 10_15_7) AppleWebKit/537.36 (KHTML, like Gecko) Chrome/135.0.0.0 Safari/537.36" version="27.0.3" pages="7">
  <diagram name="Characters(Персонажи)" id="l6zr8a5qChE1qaG4STwK">
    <mxGraphModel dx="523" dy="813" grid="1" gridSize="10" guides="1" tooltips="1" connect="1" arrows="1" fold="1" page="1" pageScale="1" pageWidth="827" pageHeight="1169" math="0" shadow="0">
      <root>
        <mxCell id="0" />
        <mxCell id="1" parent="0" />
        <mxCell id="Orc21brbF7So8Q4Pkzj1-3" value="" style="group" parent="1" vertex="1" connectable="0">
          <mxGeometry x="50" y="60" width="120" height="120" as="geometry" />
        </mxCell>
        <mxCell id="Orc21brbF7So8Q4Pkzj1-1" value="&lt;div style=&quot;font-family: Menlo, Monaco, &amp;quot;Courier New&amp;quot;, monospace; line-height: 18px; white-space: pre;&quot;&gt;&lt;span&gt;&lt;font style=&quot;color: rgb(0, 0, 0);&quot;&gt;Edward Cullen&lt;/font&gt;&lt;/span&gt;&lt;/div&gt;" style="ellipse;whiteSpace=wrap;html=1;aspect=fixed;" parent="Orc21brbF7So8Q4Pkzj1-3" vertex="1">
          <mxGeometry width="120" height="120" as="geometry" />
        </mxCell>
        <mxCell id="Orc21brbF7So8Q4Pkzj1-2" value="1" style="ellipse;whiteSpace=wrap;html=1;aspect=fixed;" parent="Orc21brbF7So8Q4Pkzj1-3" vertex="1">
          <mxGeometry x="37.5" width="45" height="45" as="geometry" />
        </mxCell>
        <mxCell id="Orc21brbF7So8Q4Pkzj1-4" value="" style="group" parent="1" vertex="1" connectable="0">
          <mxGeometry x="200" y="60" width="120" height="120" as="geometry" />
        </mxCell>
        <mxCell id="Orc21brbF7So8Q4Pkzj1-5" value="&lt;div style=&quot;font-family: Menlo, Monaco, &amp;quot;Courier New&amp;quot;, monospace; line-height: 18px; white-space: pre;&quot;&gt;&lt;div style=&quot;line-height: 18px;&quot;&gt;&lt;span&gt;&lt;font style=&quot;color: rgb(0, 0, 0);&quot;&gt;Bella Swan&lt;/font&gt;&lt;/span&gt;&lt;/div&gt;&lt;/div&gt;" style="ellipse;whiteSpace=wrap;html=1;aspect=fixed;" parent="Orc21brbF7So8Q4Pkzj1-4" vertex="1">
          <mxGeometry width="120" height="120" as="geometry" />
        </mxCell>
        <mxCell id="Orc21brbF7So8Q4Pkzj1-6" value="2" style="ellipse;whiteSpace=wrap;html=1;aspect=fixed;" parent="Orc21brbF7So8Q4Pkzj1-4" vertex="1">
          <mxGeometry x="37.5" width="45" height="45" as="geometry" />
        </mxCell>
        <mxCell id="Orc21brbF7So8Q4Pkzj1-7" value="" style="group" parent="1" vertex="1" connectable="0">
          <mxGeometry x="350" y="60" width="120" height="120" as="geometry" />
        </mxCell>
        <mxCell id="Orc21brbF7So8Q4Pkzj1-8" value="&lt;div style=&quot;font-family: Menlo, Monaco, &amp;quot;Courier New&amp;quot;, monospace; line-height: 18px; white-space: pre;&quot;&gt;&lt;div style=&quot;line-height: 18px;&quot;&gt;&lt;span&gt;&lt;font style=&quot;color: rgb(0, 0, 0);&quot;&gt;Jacob Black&lt;/font&gt;&lt;/span&gt;&lt;/div&gt;&lt;/div&gt;" style="ellipse;whiteSpace=wrap;html=1;aspect=fixed;" parent="Orc21brbF7So8Q4Pkzj1-7" vertex="1">
          <mxGeometry width="120" height="120" as="geometry" />
        </mxCell>
        <mxCell id="Orc21brbF7So8Q4Pkzj1-9" value="3" style="ellipse;whiteSpace=wrap;html=1;aspect=fixed;" parent="Orc21brbF7So8Q4Pkzj1-7" vertex="1">
          <mxGeometry x="37.5" width="45" height="45" as="geometry" />
        </mxCell>
        <mxCell id="Orc21brbF7So8Q4Pkzj1-10" value="" style="group" parent="1" vertex="1" connectable="0">
          <mxGeometry x="650" y="210" width="120" height="150" as="geometry" />
        </mxCell>
        <mxCell id="Orc21brbF7So8Q4Pkzj1-11" value="&lt;div style=&quot;font-family: Menlo, Monaco, &amp;quot;Courier New&amp;quot;, monospace; line-height: 18px; white-space: pre;&quot;&gt;&lt;div style=&quot;line-height: 18px;&quot;&gt;&lt;span&gt;&lt;font style=&quot;color: rgb(0, 0, 0);&quot;&gt;Emmett Cullen&lt;/font&gt;&lt;/span&gt;&lt;/div&gt;&lt;/div&gt;" style="ellipse;whiteSpace=wrap;html=1;aspect=fixed;" parent="Orc21brbF7So8Q4Pkzj1-10" vertex="1">
          <mxGeometry width="120" height="120" as="geometry" />
        </mxCell>
        <mxCell id="Orc21brbF7So8Q4Pkzj1-12" value="10" style="ellipse;whiteSpace=wrap;html=1;aspect=fixed;" parent="Orc21brbF7So8Q4Pkzj1-10" vertex="1">
          <mxGeometry x="37.5" width="45" height="45" as="geometry" />
        </mxCell>
        <mxCell id="Orc21brbF7So8Q4Pkzj1-13" value="" style="group" parent="1" vertex="1" connectable="0">
          <mxGeometry x="350" y="210" width="120" height="120" as="geometry" />
        </mxCell>
        <mxCell id="Orc21brbF7So8Q4Pkzj1-14" value="&lt;div style=&quot;font-family: Menlo, Monaco, &amp;quot;Courier New&amp;quot;, monospace; line-height: 18px; white-space: pre;&quot;&gt;&lt;div style=&quot;line-height: 18px;&quot;&gt;&lt;span&gt;&lt;font style=&quot;color: rgb(0, 0, 0);&quot;&gt;Jane&lt;/font&gt;&lt;/span&gt;&lt;/div&gt;&lt;/div&gt;" style="ellipse;whiteSpace=wrap;html=1;aspect=fixed;" parent="Orc21brbF7So8Q4Pkzj1-13" vertex="1">
          <mxGeometry width="120" height="120" as="geometry" />
        </mxCell>
        <mxCell id="Orc21brbF7So8Q4Pkzj1-15" value="8" style="ellipse;whiteSpace=wrap;html=1;aspect=fixed;" parent="Orc21brbF7So8Q4Pkzj1-13" vertex="1">
          <mxGeometry x="37.5" width="45" height="45" as="geometry" />
        </mxCell>
        <mxCell id="Orc21brbF7So8Q4Pkzj1-16" value="" style="group" parent="1" vertex="1" connectable="0">
          <mxGeometry x="500" y="210" width="120" height="120" as="geometry" />
        </mxCell>
        <mxCell id="Orc21brbF7So8Q4Pkzj1-17" value="&lt;div style=&quot;font-family: Menlo, Monaco, &amp;quot;Courier New&amp;quot;, monospace; line-height: 18px; white-space: pre;&quot;&gt;&lt;div style=&quot;line-height: 18px;&quot;&gt;&lt;span&gt;&lt;font style=&quot;color: rgb(0, 0, 0);&quot;&gt;Rosalie Hale&lt;/font&gt;&lt;/span&gt;&lt;/div&gt;&lt;/div&gt;" style="ellipse;whiteSpace=wrap;html=1;aspect=fixed;" parent="Orc21brbF7So8Q4Pkzj1-16" vertex="1">
          <mxGeometry width="120" height="120" as="geometry" />
        </mxCell>
        <mxCell id="Orc21brbF7So8Q4Pkzj1-18" value="9" style="ellipse;whiteSpace=wrap;html=1;aspect=fixed;" parent="Orc21brbF7So8Q4Pkzj1-16" vertex="1">
          <mxGeometry x="37.5" width="45" height="45" as="geometry" />
        </mxCell>
        <mxCell id="Orc21brbF7So8Q4Pkzj1-22" value="" style="group" parent="1" vertex="1" connectable="0">
          <mxGeometry x="50" y="210" width="120" height="120" as="geometry" />
        </mxCell>
        <mxCell id="Orc21brbF7So8Q4Pkzj1-23" value="&lt;div style=&quot;font-family: Menlo, Monaco, &amp;quot;Courier New&amp;quot;, monospace; line-height: 18px; white-space: pre;&quot;&gt;&lt;div style=&quot;line-height: 18px;&quot;&gt;&lt;font style=&quot;color: rgb(0, 0, 0);&quot;&gt;Carlisle Cullen&lt;/font&gt;&lt;/div&gt;&lt;/div&gt;" style="ellipse;whiteSpace=wrap;html=1;aspect=fixed;" parent="Orc21brbF7So8Q4Pkzj1-22" vertex="1">
          <mxGeometry width="120" height="120" as="geometry" />
        </mxCell>
        <mxCell id="Orc21brbF7So8Q4Pkzj1-24" value="6" style="ellipse;whiteSpace=wrap;html=1;aspect=fixed;" parent="Orc21brbF7So8Q4Pkzj1-22" vertex="1">
          <mxGeometry x="37.5" width="45" height="45" as="geometry" />
        </mxCell>
        <mxCell id="Orc21brbF7So8Q4Pkzj1-25" value="" style="group" parent="1" vertex="1" connectable="0">
          <mxGeometry x="500" y="60" width="120" height="120" as="geometry" />
        </mxCell>
        <mxCell id="Orc21brbF7So8Q4Pkzj1-26" value="&lt;div style=&quot;font-family: Menlo, Monaco, &amp;quot;Courier New&amp;quot;, monospace; line-height: 18px; white-space: pre;&quot;&gt;&lt;div style=&quot;line-height: 18px;&quot;&gt;&lt;span&gt;&lt;font style=&quot;color: rgb(0, 0, 0);&quot;&gt;Alice Cullen&lt;/font&gt;&lt;/span&gt;&lt;/div&gt;&lt;/div&gt;" style="ellipse;whiteSpace=wrap;html=1;aspect=fixed;" parent="Orc21brbF7So8Q4Pkzj1-25" vertex="1">
          <mxGeometry width="120" height="120" as="geometry" />
        </mxCell>
        <mxCell id="Orc21brbF7So8Q4Pkzj1-27" value="4" style="ellipse;whiteSpace=wrap;html=1;aspect=fixed;" parent="Orc21brbF7So8Q4Pkzj1-25" vertex="1">
          <mxGeometry x="37.5" width="45" height="45" as="geometry" />
        </mxCell>
        <mxCell id="Orc21brbF7So8Q4Pkzj1-28" value="" style="group" parent="1" vertex="1" connectable="0">
          <mxGeometry x="200" y="210" width="120" height="120" as="geometry" />
        </mxCell>
        <mxCell id="Orc21brbF7So8Q4Pkzj1-29" value="&lt;div style=&quot;font-family: Menlo, Monaco, &amp;quot;Courier New&amp;quot;, monospace; line-height: 18px; white-space: pre;&quot;&gt;&lt;div style=&quot;line-height: 18px;&quot;&gt;&lt;font style=&quot;color: rgb(0, 0, 0);&quot;&gt;Renesmee Cullen&lt;/font&gt;&lt;/div&gt;&lt;/div&gt;" style="ellipse;whiteSpace=wrap;html=1;aspect=fixed;" parent="Orc21brbF7So8Q4Pkzj1-28" vertex="1">
          <mxGeometry width="120" height="120" as="geometry" />
        </mxCell>
        <mxCell id="Orc21brbF7So8Q4Pkzj1-30" value="7" style="ellipse;whiteSpace=wrap;html=1;aspect=fixed;" parent="Orc21brbF7So8Q4Pkzj1-28" vertex="1">
          <mxGeometry x="37.5" width="45" height="45" as="geometry" />
        </mxCell>
        <mxCell id="Orc21brbF7So8Q4Pkzj1-19" value="" style="group" parent="1" vertex="1" connectable="0">
          <mxGeometry x="650" y="60" width="120" height="120" as="geometry" />
        </mxCell>
        <mxCell id="Orc21brbF7So8Q4Pkzj1-20" value="&lt;div style=&quot;font-family: Menlo, Monaco, &amp;quot;Courier New&amp;quot;, monospace; line-height: 18px; white-space: pre;&quot;&gt;&lt;div style=&quot;line-height: 18px;&quot;&gt;&lt;span&gt;&lt;font style=&quot;color: rgb(0, 0, 0);&quot;&gt;Aro&lt;/font&gt;&lt;/span&gt;&lt;/div&gt;&lt;/div&gt;" style="ellipse;whiteSpace=wrap;html=1;aspect=fixed;" parent="Orc21brbF7So8Q4Pkzj1-19" vertex="1">
          <mxGeometry width="120" height="120" as="geometry" />
        </mxCell>
        <mxCell id="Orc21brbF7So8Q4Pkzj1-21" value="5" style="ellipse;whiteSpace=wrap;html=1;aspect=fixed;" parent="Orc21brbF7So8Q4Pkzj1-19" vertex="1">
          <mxGeometry x="37.5" width="45" height="45" as="geometry" />
        </mxCell>
      </root>
    </mxGraphModel>
  </diagram>
  <diagram id="4rR-M0xB_t7VGzIYDZqh" name="Artifact(Артефакты)">
    <mxGraphModel dx="523" dy="813" grid="1" gridSize="10" guides="1" tooltips="1" connect="1" arrows="1" fold="1" page="1" pageScale="1" pageWidth="827" pageHeight="1169" math="0" shadow="0">
      <root>
        <mxCell id="0" />
        <mxCell id="1" parent="0" />
        <mxCell id="WjErbRD8AvA6AkHYXU5a-1" value="" style="group" parent="1" vertex="1" connectable="0">
          <mxGeometry x="40" y="40" width="120" height="120" as="geometry" />
        </mxCell>
        <mxCell id="hOI_8kGkmsmN_njRSF3d-1" value="&lt;div style=&quot;font-family: Menlo, Monaco, &amp;quot;Courier New&amp;quot;, monospace; line-height: 18px; white-space: pre;&quot;&gt;&lt;font style=&quot;color: rgb(0, 0, 0);&quot;&gt;Aro&#39;s ring&lt;/font&gt;&lt;/div&gt;" style="whiteSpace=wrap;html=1;aspect=fixed;" parent="WjErbRD8AvA6AkHYXU5a-1" vertex="1">
          <mxGeometry width="120" height="120" as="geometry" />
        </mxCell>
        <mxCell id="hOI_8kGkmsmN_njRSF3d-2" value="1" style="whiteSpace=wrap;html=1;aspect=fixed;" parent="WjErbRD8AvA6AkHYXU5a-1" vertex="1">
          <mxGeometry x="40" width="40" height="40" as="geometry" />
        </mxCell>
        <mxCell id="WjErbRD8AvA6AkHYXU5a-2" value="" style="group" parent="1" vertex="1" connectable="0">
          <mxGeometry x="200" y="40" width="120" height="120" as="geometry" />
        </mxCell>
        <mxCell id="WjErbRD8AvA6AkHYXU5a-3" value="&lt;div style=&quot;font-family: Menlo, Monaco, &amp;quot;Courier New&amp;quot;, monospace; line-height: 18px; white-space: pre;&quot;&gt;&lt;div style=&quot;line-height: 18px;&quot;&gt;&lt;font style=&quot;font-size: 11px; color: rgb(0, 0, 0);&quot;&gt;&lt;span&gt;Bella&lt;/span&gt;&lt;span&gt;&#39;&lt;/span&gt;&lt;span&gt;s shield&lt;/span&gt;&lt;/font&gt;&lt;/div&gt;&lt;/div&gt;" style="whiteSpace=wrap;html=1;aspect=fixed;" parent="WjErbRD8AvA6AkHYXU5a-2" vertex="1">
          <mxGeometry width="120" height="120" as="geometry" />
        </mxCell>
        <mxCell id="WjErbRD8AvA6AkHYXU5a-4" value="2" style="whiteSpace=wrap;html=1;aspect=fixed;" parent="WjErbRD8AvA6AkHYXU5a-2" vertex="1">
          <mxGeometry x="40" width="40" height="40" as="geometry" />
        </mxCell>
        <mxCell id="WjErbRD8AvA6AkHYXU5a-11" value="" style="group" parent="1" vertex="1" connectable="0">
          <mxGeometry x="360" y="40" width="120" height="120" as="geometry" />
        </mxCell>
        <mxCell id="WjErbRD8AvA6AkHYXU5a-12" value="&lt;div style=&quot;font-family: Menlo, Monaco, &amp;quot;Courier New&amp;quot;, monospace; line-height: 18px; white-space: pre;&quot;&gt;&lt;div style=&quot;line-height: 18px;&quot;&gt;&lt;span&gt;&lt;font style=&quot;color: rgb(0, 0, 0);&quot;&gt;&lt;br&gt;&lt;/font&gt;&lt;/span&gt;&lt;/div&gt;&lt;div style=&quot;line-height: 18px;&quot;&gt;&lt;span&gt;&lt;font style=&quot;color: rgb(0, 0, 0);&quot;&gt;Cullen family&lt;br&gt;crest&lt;/font&gt;&lt;/span&gt;&lt;/div&gt;&lt;/div&gt;" style="whiteSpace=wrap;html=1;aspect=fixed;" parent="WjErbRD8AvA6AkHYXU5a-11" vertex="1">
          <mxGeometry width="120" height="120" as="geometry" />
        </mxCell>
        <mxCell id="WjErbRD8AvA6AkHYXU5a-13" value="3" style="whiteSpace=wrap;html=1;aspect=fixed;" parent="WjErbRD8AvA6AkHYXU5a-11" vertex="1">
          <mxGeometry x="40" width="40" height="40" as="geometry" />
        </mxCell>
        <mxCell id="WjErbRD8AvA6AkHYXU5a-14" value="" style="group" parent="1" vertex="1" connectable="0">
          <mxGeometry x="520" y="40" width="120" height="120" as="geometry" />
        </mxCell>
        <mxCell id="WjErbRD8AvA6AkHYXU5a-15" value="&lt;div style=&quot;font-family: Menlo, Monaco, &amp;quot;Courier New&amp;quot;, monospace; line-height: 18px; white-space: pre;&quot;&gt;&lt;div style=&quot;line-height: 18px;&quot;&gt;&lt;span&gt;&lt;font style=&quot;color: rgb(0, 0, 0);&quot;&gt;Jacob&#39;s charm&lt;/font&gt;&lt;/span&gt;&lt;/div&gt;&lt;/div&gt;" style="whiteSpace=wrap;html=1;aspect=fixed;" parent="WjErbRD8AvA6AkHYXU5a-14" vertex="1">
          <mxGeometry width="120" height="120" as="geometry" />
        </mxCell>
        <mxCell id="WjErbRD8AvA6AkHYXU5a-16" value="4" style="whiteSpace=wrap;html=1;aspect=fixed;" parent="WjErbRD8AvA6AkHYXU5a-14" vertex="1">
          <mxGeometry x="40" width="40" height="40" as="geometry" />
        </mxCell>
        <mxCell id="WjErbRD8AvA6AkHYXU5a-17" value="" style="group" parent="1" vertex="1" connectable="0">
          <mxGeometry x="680" y="40" width="120" height="120" as="geometry" />
        </mxCell>
        <mxCell id="WjErbRD8AvA6AkHYXU5a-18" value="&lt;div style=&quot;font-family: Menlo, Monaco, &amp;quot;Courier New&amp;quot;, monospace; line-height: 18px; white-space: pre;&quot;&gt;&lt;div style=&quot;line-height: 18px;&quot;&gt;&lt;span&gt;&lt;font style=&quot;color: rgb(0, 0, 0);&quot;&gt;&lt;br&gt;&lt;/font&gt;&lt;/span&gt;&lt;/div&gt;&lt;div style=&quot;line-height: 18px;&quot;&gt;&lt;span&gt;&lt;font style=&quot;color: rgb(0, 0, 0);&quot;&gt;Renesmee&#39;s&lt;br&gt;locket&lt;/font&gt;&lt;/span&gt;&lt;/div&gt;&lt;/div&gt;" style="whiteSpace=wrap;html=1;aspect=fixed;" parent="WjErbRD8AvA6AkHYXU5a-17" vertex="1">
          <mxGeometry width="120" height="120" as="geometry" />
        </mxCell>
        <mxCell id="WjErbRD8AvA6AkHYXU5a-19" value="5" style="whiteSpace=wrap;html=1;aspect=fixed;" parent="WjErbRD8AvA6AkHYXU5a-17" vertex="1">
          <mxGeometry x="40" width="40" height="40" as="geometry" />
        </mxCell>
        <mxCell id="WjErbRD8AvA6AkHYXU5a-20" value="" style="group" parent="1" vertex="1" connectable="0">
          <mxGeometry x="40" y="200" width="120" height="120" as="geometry" />
        </mxCell>
        <mxCell id="WjErbRD8AvA6AkHYXU5a-21" value="&lt;div style=&quot;font-family: Menlo, Monaco, &amp;quot;Courier New&amp;quot;, monospace; line-height: 18px; white-space: pre;&quot;&gt;&lt;div style=&quot;line-height: 18px;&quot;&gt;&lt;span&gt;&lt;font style=&quot;color: rgb(0, 0, 0);&quot;&gt;Carlisle&#39;s ring&lt;/font&gt;&lt;/span&gt;&lt;/div&gt;&lt;/div&gt;" style="whiteSpace=wrap;html=1;aspect=fixed;" parent="WjErbRD8AvA6AkHYXU5a-20" vertex="1">
          <mxGeometry width="120" height="120" as="geometry" />
        </mxCell>
        <mxCell id="WjErbRD8AvA6AkHYXU5a-22" value="6" style="whiteSpace=wrap;html=1;aspect=fixed;" parent="WjErbRD8AvA6AkHYXU5a-20" vertex="1">
          <mxGeometry x="40" width="40" height="40" as="geometry" />
        </mxCell>
        <mxCell id="WjErbRD8AvA6AkHYXU5a-23" value="" style="group" parent="1" vertex="1" connectable="0">
          <mxGeometry x="200" y="200" width="120" height="120" as="geometry" />
        </mxCell>
        <mxCell id="WjErbRD8AvA6AkHYXU5a-24" value="&lt;div style=&quot;font-family: Menlo, Monaco, &amp;quot;Courier New&amp;quot;, monospace; line-height: 18px; white-space: pre;&quot;&gt;&lt;div style=&quot;line-height: 18px;&quot;&gt;&lt;span&gt;&lt;font style=&quot;color: rgb(0, 0, 0);&quot;&gt;&lt;br&gt;&lt;/font&gt;&lt;/span&gt;&lt;/div&gt;&lt;div style=&quot;line-height: 18px;&quot;&gt;&lt;span&gt;&lt;font style=&quot;color: rgb(0, 0, 0);&quot;&gt;Alice&#39;s vision&lt;br&gt;pendant&lt;/font&gt;&lt;/span&gt;&lt;/div&gt;&lt;/div&gt;" style="whiteSpace=wrap;html=1;aspect=fixed;" parent="WjErbRD8AvA6AkHYXU5a-23" vertex="1">
          <mxGeometry width="120" height="120" as="geometry" />
        </mxCell>
        <mxCell id="WjErbRD8AvA6AkHYXU5a-25" value="7" style="whiteSpace=wrap;html=1;aspect=fixed;" parent="WjErbRD8AvA6AkHYXU5a-23" vertex="1">
          <mxGeometry x="40" width="40" height="40" as="geometry" />
        </mxCell>
        <mxCell id="WjErbRD8AvA6AkHYXU5a-26" value="" style="group" parent="1" vertex="1" connectable="0">
          <mxGeometry x="360" y="200" width="120" height="120" as="geometry" />
        </mxCell>
        <mxCell id="WjErbRD8AvA6AkHYXU5a-27" value="&lt;div style=&quot;font-family: Menlo, Monaco, &amp;quot;Courier New&amp;quot;, monospace; line-height: 18px; white-space: pre;&quot;&gt;&lt;div style=&quot;line-height: 18px;&quot;&gt;&lt;span&gt;&lt;font style=&quot;color: rgb(0, 0, 0);&quot;&gt;&lt;br&gt;&lt;/font&gt;&lt;/span&gt;&lt;/div&gt;&lt;div style=&quot;line-height: 18px;&quot;&gt;&lt;span&gt;&lt;font style=&quot;color: rgb(0, 0, 0);&quot;&gt;Jane&#39;s cloak&lt;br&gt;pin&lt;/font&gt;&lt;/span&gt;&lt;/div&gt;&lt;/div&gt;" style="whiteSpace=wrap;html=1;aspect=fixed;" parent="WjErbRD8AvA6AkHYXU5a-26" vertex="1">
          <mxGeometry width="120" height="120" as="geometry" />
        </mxCell>
        <mxCell id="WjErbRD8AvA6AkHYXU5a-28" value="8" style="whiteSpace=wrap;html=1;aspect=fixed;" parent="WjErbRD8AvA6AkHYXU5a-26" vertex="1">
          <mxGeometry x="40" width="40" height="40" as="geometry" />
        </mxCell>
        <mxCell id="WjErbRD8AvA6AkHYXU5a-29" value="" style="group" parent="1" vertex="1" connectable="0">
          <mxGeometry x="520" y="200" width="120" height="120" as="geometry" />
        </mxCell>
        <mxCell id="WjErbRD8AvA6AkHYXU5a-30" value="&lt;div style=&quot;font-family: Menlo, Monaco, &amp;quot;Courier New&amp;quot;, monospace; line-height: 18px; white-space: pre;&quot;&gt;&lt;div style=&quot;line-height: 18px;&quot;&gt;&lt;span&gt;&lt;font style=&quot;color: rgb(0, 0, 0);&quot;&gt;Emmett&#39;s chain&lt;/font&gt;&lt;/span&gt;&lt;/div&gt;&lt;/div&gt;" style="whiteSpace=wrap;html=1;aspect=fixed;" parent="WjErbRD8AvA6AkHYXU5a-29" vertex="1">
          <mxGeometry width="120" height="120" as="geometry" />
        </mxCell>
        <mxCell id="WjErbRD8AvA6AkHYXU5a-31" value="9" style="whiteSpace=wrap;html=1;aspect=fixed;" parent="WjErbRD8AvA6AkHYXU5a-29" vertex="1">
          <mxGeometry x="40" width="40" height="40" as="geometry" />
        </mxCell>
        <mxCell id="WjErbRD8AvA6AkHYXU5a-32" value="" style="group" parent="1" vertex="1" connectable="0">
          <mxGeometry x="680" y="200" width="120" height="120" as="geometry" />
        </mxCell>
        <mxCell id="WjErbRD8AvA6AkHYXU5a-33" value="&lt;div style=&quot;font-family: Menlo, Monaco, &amp;quot;Courier New&amp;quot;, monospace; line-height: 18px; white-space: pre;&quot;&gt;&lt;div style=&quot;line-height: 18px;&quot;&gt;&lt;span&gt;&lt;font style=&quot;color: rgb(0, 0, 0);&quot;&gt;&lt;br&gt;&lt;/font&gt;&lt;/span&gt;&lt;/div&gt;&lt;div style=&quot;line-height: 18px;&quot;&gt;&lt;span&gt;&lt;font style=&quot;color: rgb(0, 0, 0);&quot;&gt;Rosalie&#39;s&lt;br&gt;mirror&lt;/font&gt;&lt;/span&gt;&lt;/div&gt;&lt;/div&gt;" style="whiteSpace=wrap;html=1;aspect=fixed;" parent="WjErbRD8AvA6AkHYXU5a-32" vertex="1">
          <mxGeometry width="120" height="120" as="geometry" />
        </mxCell>
        <mxCell id="WjErbRD8AvA6AkHYXU5a-34" value="10" style="whiteSpace=wrap;html=1;aspect=fixed;" parent="WjErbRD8AvA6AkHYXU5a-32" vertex="1">
          <mxGeometry x="40" width="40" height="40" as="geometry" />
        </mxCell>
      </root>
    </mxGraphModel>
  </diagram>
  <diagram id="6-r5HvpVdh8d6KWfjMsp" name="Place(Места)">
    <mxGraphModel dx="523" dy="813" grid="1" gridSize="10" guides="1" tooltips="1" connect="1" arrows="1" fold="1" page="1" pageScale="1" pageWidth="827" pageHeight="1169" math="0" shadow="0">
      <root>
        <mxCell id="0" />
        <mxCell id="1" parent="0" />
        <mxCell id="Ed5FZIBlGEJlwuUjjTE9-3" value="" style="group" parent="1" vertex="1" connectable="0">
          <mxGeometry x="10" y="30" width="160" height="120" as="geometry" />
        </mxCell>
        <mxCell id="Ed5FZIBlGEJlwuUjjTE9-1" value="&lt;div style=&quot;font-family: Menlo, Monaco, &amp;quot;Courier New&amp;quot;, monospace; line-height: 18px; white-space: pre;&quot;&gt;&lt;font style=&quot;color: rgb(0, 0, 0);&quot;&gt;Forks&lt;/font&gt;&lt;/div&gt;" style="ellipse;shape=cloud;whiteSpace=wrap;html=1;" parent="Ed5FZIBlGEJlwuUjjTE9-3" vertex="1">
          <mxGeometry y="9.230769230769232" width="160" height="110.76923076923077" as="geometry" />
        </mxCell>
        <mxCell id="Ed5FZIBlGEJlwuUjjTE9-2" value="1" style="ellipse;shape=cloud;whiteSpace=wrap;html=1;" parent="Ed5FZIBlGEJlwuUjjTE9-3" vertex="1">
          <mxGeometry x="47.05882352941176" width="65.88235294117646" height="46.15384615384615" as="geometry" />
        </mxCell>
        <mxCell id="Ed5FZIBlGEJlwuUjjTE9-13" value="" style="group" parent="1" vertex="1" connectable="0">
          <mxGeometry x="170" y="30" width="160" height="120" as="geometry" />
        </mxCell>
        <mxCell id="Ed5FZIBlGEJlwuUjjTE9-14" value="&lt;div style=&quot;font-family: Menlo, Monaco, &amp;quot;Courier New&amp;quot;, monospace; line-height: 18px; white-space: pre;&quot;&gt;&lt;div style=&quot;line-height: 18px;&quot;&gt;&lt;span&gt;&lt;font style=&quot;color: rgb(0, 0, 0);&quot;&gt;La Push&lt;/font&gt;&lt;/span&gt;&lt;/div&gt;&lt;/div&gt;" style="ellipse;shape=cloud;whiteSpace=wrap;html=1;" parent="Ed5FZIBlGEJlwuUjjTE9-13" vertex="1">
          <mxGeometry y="9.230769230769232" width="160" height="110.76923076923077" as="geometry" />
        </mxCell>
        <mxCell id="Ed5FZIBlGEJlwuUjjTE9-15" value="2" style="ellipse;shape=cloud;whiteSpace=wrap;html=1;" parent="Ed5FZIBlGEJlwuUjjTE9-13" vertex="1">
          <mxGeometry x="47.05882352941176" width="65.88235294117646" height="46.15384615384615" as="geometry" />
        </mxCell>
        <mxCell id="Ed5FZIBlGEJlwuUjjTE9-16" value="" style="group" parent="1" vertex="1" connectable="0">
          <mxGeometry x="330" y="30" width="160" height="120" as="geometry" />
        </mxCell>
        <mxCell id="Ed5FZIBlGEJlwuUjjTE9-17" value="&lt;div style=&quot;font-family: Menlo, Monaco, &amp;quot;Courier New&amp;quot;, monospace; line-height: 18px; white-space: pre;&quot;&gt;&lt;div style=&quot;line-height: 18px;&quot;&gt;&lt;span&gt;&lt;font style=&quot;color: rgb(0, 0, 0);&quot;&gt;Volterra&lt;/font&gt;&lt;/span&gt;&lt;/div&gt;&lt;/div&gt;" style="ellipse;shape=cloud;whiteSpace=wrap;html=1;" parent="Ed5FZIBlGEJlwuUjjTE9-16" vertex="1">
          <mxGeometry y="9.230769230769232" width="160" height="110.76923076923077" as="geometry" />
        </mxCell>
        <mxCell id="Ed5FZIBlGEJlwuUjjTE9-18" value="3" style="ellipse;shape=cloud;whiteSpace=wrap;html=1;" parent="Ed5FZIBlGEJlwuUjjTE9-16" vertex="1">
          <mxGeometry x="47.05882352941176" width="65.88235294117646" height="46.15384615384615" as="geometry" />
        </mxCell>
        <mxCell id="Ed5FZIBlGEJlwuUjjTE9-19" value="" style="group" parent="1" vertex="1" connectable="0">
          <mxGeometry x="490" y="30" width="160" height="120" as="geometry" />
        </mxCell>
        <mxCell id="Ed5FZIBlGEJlwuUjjTE9-20" value="&lt;div style=&quot;font-family: Menlo, Monaco, &amp;quot;Courier New&amp;quot;, monospace; line-height: 18px; white-space: pre;&quot;&gt;&lt;div style=&quot;line-height: 18px;&quot;&gt;&lt;span&gt;&lt;font style=&quot;color: rgb(0, 0, 0);&quot;&gt;Cullen House&lt;/font&gt;&lt;/span&gt;&lt;/div&gt;&lt;/div&gt;" style="ellipse;shape=cloud;whiteSpace=wrap;html=1;" parent="Ed5FZIBlGEJlwuUjjTE9-19" vertex="1">
          <mxGeometry y="9.230769230769232" width="160" height="110.76923076923077" as="geometry" />
        </mxCell>
        <mxCell id="Ed5FZIBlGEJlwuUjjTE9-21" value="4" style="ellipse;shape=cloud;whiteSpace=wrap;html=1;" parent="Ed5FZIBlGEJlwuUjjTE9-19" vertex="1">
          <mxGeometry x="47.05882352941176" width="65.88235294117646" height="46.15384615384615" as="geometry" />
        </mxCell>
        <mxCell id="Ed5FZIBlGEJlwuUjjTE9-22" value="" style="group" parent="1" vertex="1" connectable="0">
          <mxGeometry x="650" y="30" width="160" height="120" as="geometry" />
        </mxCell>
        <mxCell id="Ed5FZIBlGEJlwuUjjTE9-23" value="&lt;div style=&quot;font-family: Menlo, Monaco, &amp;quot;Courier New&amp;quot;, monospace; line-height: 18px; white-space: pre;&quot;&gt;&lt;div style=&quot;line-height: 18px;&quot;&gt;&lt;span&gt;&lt;font style=&quot;color: rgb(0, 0, 0);&quot;&gt;High School&lt;/font&gt;&lt;/span&gt;&lt;/div&gt;&lt;/div&gt;" style="ellipse;shape=cloud;whiteSpace=wrap;html=1;" parent="Ed5FZIBlGEJlwuUjjTE9-22" vertex="1">
          <mxGeometry y="9.230769230769232" width="160" height="110.76923076923077" as="geometry" />
        </mxCell>
        <mxCell id="Ed5FZIBlGEJlwuUjjTE9-24" value="5" style="ellipse;shape=cloud;whiteSpace=wrap;html=1;" parent="Ed5FZIBlGEJlwuUjjTE9-22" vertex="1">
          <mxGeometry x="47.05882352941176" width="65.88235294117646" height="46.15384615384615" as="geometry" />
        </mxCell>
        <mxCell id="Ed5FZIBlGEJlwuUjjTE9-25" value="" style="group" parent="1" vertex="1" connectable="0">
          <mxGeometry x="10" y="160" width="160" height="120" as="geometry" />
        </mxCell>
        <mxCell id="Ed5FZIBlGEJlwuUjjTE9-26" value="&lt;div style=&quot;font-family: Menlo, Monaco, &amp;quot;Courier New&amp;quot;, monospace; line-height: 18px; white-space: pre;&quot;&gt;&lt;div style=&quot;line-height: 18px;&quot;&gt;&lt;span&gt;&lt;font style=&quot;color: rgb(0, 0, 0);&quot;&gt;Forest&lt;/font&gt;&lt;/span&gt;&lt;/div&gt;&lt;/div&gt;" style="ellipse;shape=cloud;whiteSpace=wrap;html=1;" parent="Ed5FZIBlGEJlwuUjjTE9-25" vertex="1">
          <mxGeometry y="9.230769230769232" width="160" height="110.76923076923077" as="geometry" />
        </mxCell>
        <mxCell id="Ed5FZIBlGEJlwuUjjTE9-27" value="6" style="ellipse;shape=cloud;whiteSpace=wrap;html=1;" parent="Ed5FZIBlGEJlwuUjjTE9-25" vertex="1">
          <mxGeometry x="47.05882352941176" width="65.88235294117646" height="46.15384615384615" as="geometry" />
        </mxCell>
        <mxCell id="Ed5FZIBlGEJlwuUjjTE9-28" value="" style="group" parent="1" vertex="1" connectable="0">
          <mxGeometry x="170" y="160" width="160" height="120" as="geometry" />
        </mxCell>
        <mxCell id="Ed5FZIBlGEJlwuUjjTE9-29" value="&lt;div style=&quot;font-family: Menlo, Monaco, &amp;quot;Courier New&amp;quot;, monospace; line-height: 18px; white-space: pre;&quot;&gt;&lt;div style=&quot;line-height: 18px;&quot;&gt;&lt;span&gt;&lt;font style=&quot;color: rgb(0, 0, 0);&quot;&gt;Bella&#39;s House&lt;/font&gt;&lt;/span&gt;&lt;/div&gt;&lt;/div&gt;" style="ellipse;shape=cloud;whiteSpace=wrap;html=1;" parent="Ed5FZIBlGEJlwuUjjTE9-28" vertex="1">
          <mxGeometry y="9.230769230769232" width="160" height="110.76923076923077" as="geometry" />
        </mxCell>
        <mxCell id="Ed5FZIBlGEJlwuUjjTE9-30" value="7" style="ellipse;shape=cloud;whiteSpace=wrap;html=1;" parent="Ed5FZIBlGEJlwuUjjTE9-28" vertex="1">
          <mxGeometry x="47.05882352941176" width="65.88235294117646" height="46.15384615384615" as="geometry" />
        </mxCell>
        <mxCell id="Ed5FZIBlGEJlwuUjjTE9-31" value="" style="group" parent="1" vertex="1" connectable="0">
          <mxGeometry x="330" y="160" width="160" height="120" as="geometry" />
        </mxCell>
        <mxCell id="Ed5FZIBlGEJlwuUjjTE9-32" value="&lt;div style=&quot;font-family: Menlo, Monaco, &amp;quot;Courier New&amp;quot;, monospace; line-height: 18px; white-space: pre;&quot;&gt;&lt;div style=&quot;line-height: 18px;&quot;&gt;&lt;span&gt;&lt;font style=&quot;color: rgb(0, 0, 0);&quot;&gt;Volturi Hall&lt;/font&gt;&lt;/span&gt;&lt;/div&gt;&lt;/div&gt;" style="ellipse;shape=cloud;whiteSpace=wrap;html=1;" parent="Ed5FZIBlGEJlwuUjjTE9-31" vertex="1">
          <mxGeometry y="9.230769230769232" width="160" height="110.76923076923077" as="geometry" />
        </mxCell>
        <mxCell id="Ed5FZIBlGEJlwuUjjTE9-33" value="8" style="ellipse;shape=cloud;whiteSpace=wrap;html=1;" parent="Ed5FZIBlGEJlwuUjjTE9-31" vertex="1">
          <mxGeometry x="47.05882352941176" width="65.88235294117646" height="46.15384615384615" as="geometry" />
        </mxCell>
        <mxCell id="Ed5FZIBlGEJlwuUjjTE9-34" value="" style="group" parent="1" vertex="1" connectable="0">
          <mxGeometry x="490" y="160" width="160" height="120" as="geometry" />
        </mxCell>
        <mxCell id="Ed5FZIBlGEJlwuUjjTE9-35" value="&lt;div style=&quot;font-family: Menlo, Monaco, &amp;quot;Courier New&amp;quot;, monospace; line-height: 18px; white-space: pre;&quot;&gt;&lt;div style=&quot;line-height: 18px;&quot;&gt;&lt;span&gt;&lt;font style=&quot;color: rgb(0, 0, 0);&quot;&gt;Wolf Camp&lt;/font&gt;&lt;/span&gt;&lt;/div&gt;&lt;/div&gt;" style="ellipse;shape=cloud;whiteSpace=wrap;html=1;" parent="Ed5FZIBlGEJlwuUjjTE9-34" vertex="1">
          <mxGeometry y="9.230769230769232" width="160" height="110.76923076923077" as="geometry" />
        </mxCell>
        <mxCell id="Ed5FZIBlGEJlwuUjjTE9-36" value="9" style="ellipse;shape=cloud;whiteSpace=wrap;html=1;" parent="Ed5FZIBlGEJlwuUjjTE9-34" vertex="1">
          <mxGeometry x="47.05882352941176" width="65.88235294117646" height="46.15384615384615" as="geometry" />
        </mxCell>
        <mxCell id="Ed5FZIBlGEJlwuUjjTE9-37" value="" style="group" parent="1" vertex="1" connectable="0">
          <mxGeometry x="650" y="160" width="160" height="120" as="geometry" />
        </mxCell>
        <mxCell id="Ed5FZIBlGEJlwuUjjTE9-38" value="&lt;div style=&quot;font-family: Menlo, Monaco, &amp;quot;Courier New&amp;quot;, monospace; line-height: 18px; white-space: pre;&quot;&gt;&lt;div style=&quot;line-height: 18px;&quot;&gt;&lt;span&gt;&lt;font style=&quot;color: rgb(0, 0, 0);&quot;&gt;Denali&lt;/font&gt;&lt;/span&gt;&lt;/div&gt;&lt;/div&gt;" style="ellipse;shape=cloud;whiteSpace=wrap;html=1;" parent="Ed5FZIBlGEJlwuUjjTE9-37" vertex="1">
          <mxGeometry y="9.230769230769232" width="160" height="110.76923076923077" as="geometry" />
        </mxCell>
        <mxCell id="Ed5FZIBlGEJlwuUjjTE9-39" value="10" style="ellipse;shape=cloud;whiteSpace=wrap;html=1;" parent="Ed5FZIBlGEJlwuUjjTE9-37" vertex="1">
          <mxGeometry x="47.05882352941176" width="65.88235294117646" height="46.15384615384615" as="geometry" />
        </mxCell>
      </root>
    </mxGraphModel>
  </diagram>
  <diagram id="BgTGhTOa4uGqzw0L2xV5" name="RelatedTo(Отношения персонажей)">
    <mxGraphModel dx="1435" dy="813" grid="1" gridSize="10" guides="1" tooltips="1" connect="1" arrows="1" fold="1" page="1" pageScale="1" pageWidth="827" pageHeight="1169" math="0" shadow="0">
      <root>
        <mxCell id="0" />
        <mxCell id="1" parent="0" />
        <mxCell id="Z6DqX2Q6N9hcz0Q6o6Eb-1" value="" style="group" parent="1" vertex="1" connectable="0">
          <mxGeometry x="440" y="60" width="120" height="120" as="geometry" />
        </mxCell>
        <mxCell id="Z6DqX2Q6N9hcz0Q6o6Eb-2" value="&lt;div style=&quot;font-family: Menlo, Monaco, &amp;quot;Courier New&amp;quot;, monospace; line-height: 18px; white-space: pre;&quot;&gt;&lt;span&gt;&lt;font style=&quot;color: rgb(0, 0, 0);&quot;&gt;Edward Cullen&lt;/font&gt;&lt;/span&gt;&lt;/div&gt;" style="ellipse;whiteSpace=wrap;html=1;aspect=fixed;" parent="Z6DqX2Q6N9hcz0Q6o6Eb-1" vertex="1">
          <mxGeometry width="120" height="120" as="geometry" />
        </mxCell>
        <mxCell id="Z6DqX2Q6N9hcz0Q6o6Eb-3" value="1" style="ellipse;whiteSpace=wrap;html=1;aspect=fixed;" parent="Z6DqX2Q6N9hcz0Q6o6Eb-1" vertex="1">
          <mxGeometry x="37.5" width="45" height="45" as="geometry" />
        </mxCell>
        <mxCell id="Z6DqX2Q6N9hcz0Q6o6Eb-4" value="" style="group" parent="1" vertex="1" connectable="0">
          <mxGeometry x="680" y="60" width="120" height="120" as="geometry" />
        </mxCell>
        <mxCell id="Z6DqX2Q6N9hcz0Q6o6Eb-5" value="&lt;div style=&quot;font-family: Menlo, Monaco, &amp;quot;Courier New&amp;quot;, monospace; line-height: 18px; white-space: pre;&quot;&gt;&lt;div style=&quot;line-height: 18px;&quot;&gt;&lt;span&gt;&lt;font style=&quot;color: rgb(0, 0, 0);&quot;&gt;Bella Swan&lt;/font&gt;&lt;/span&gt;&lt;/div&gt;&lt;/div&gt;" style="ellipse;whiteSpace=wrap;html=1;aspect=fixed;" parent="Z6DqX2Q6N9hcz0Q6o6Eb-4" vertex="1">
          <mxGeometry width="120" height="120" as="geometry" />
        </mxCell>
        <mxCell id="Z6DqX2Q6N9hcz0Q6o6Eb-6" value="2" style="ellipse;whiteSpace=wrap;html=1;aspect=fixed;" parent="Z6DqX2Q6N9hcz0Q6o6Eb-4" vertex="1">
          <mxGeometry x="37.5" width="45" height="45" as="geometry" />
        </mxCell>
        <mxCell id="7ZGVWivCl3pS3FGv6aAp-1" value="" style="group" parent="1" vertex="1" connectable="0">
          <mxGeometry x="560" y="250" width="120" height="120" as="geometry" />
        </mxCell>
        <mxCell id="7ZGVWivCl3pS3FGv6aAp-2" value="&lt;div style=&quot;font-family: Menlo, Monaco, &amp;quot;Courier New&amp;quot;, monospace; line-height: 18px; white-space: pre;&quot;&gt;&lt;div style=&quot;line-height: 18px;&quot;&gt;&lt;font style=&quot;color: rgb(0, 0, 0);&quot;&gt;Renesmee Cullen&lt;/font&gt;&lt;/div&gt;&lt;/div&gt;" style="ellipse;whiteSpace=wrap;html=1;aspect=fixed;" parent="7ZGVWivCl3pS3FGv6aAp-1" vertex="1">
          <mxGeometry width="120" height="120" as="geometry" />
        </mxCell>
        <mxCell id="7ZGVWivCl3pS3FGv6aAp-3" value="7" style="ellipse;whiteSpace=wrap;html=1;aspect=fixed;" parent="7ZGVWivCl3pS3FGv6aAp-1" vertex="1">
          <mxGeometry x="37.5" width="45" height="45" as="geometry" />
        </mxCell>
        <mxCell id="7ZGVWivCl3pS3FGv6aAp-4" style="edgeStyle=orthogonalEdgeStyle;rounded=0;orthogonalLoop=1;jettySize=auto;html=1;entryX=-0.008;entryY=0.575;entryDx=0;entryDy=0;entryPerimeter=0;" parent="1" source="Z6DqX2Q6N9hcz0Q6o6Eb-2" target="7ZGVWivCl3pS3FGv6aAp-2" edge="1">
          <mxGeometry relative="1" as="geometry" />
        </mxCell>
        <mxCell id="7ZGVWivCl3pS3FGv6aAp-5" value="&lt;font style=&quot;font-size: 12px;&quot;&gt;Father&lt;/font&gt;" style="edgeLabel;html=1;align=center;verticalAlign=middle;resizable=0;points=[];" parent="7ZGVWivCl3pS3FGv6aAp-4" vertex="1" connectable="0">
          <mxGeometry x="-0.064" relative="1" as="geometry">
            <mxPoint as="offset" />
          </mxGeometry>
        </mxCell>
        <mxCell id="7ZGVWivCl3pS3FGv6aAp-6" style="edgeStyle=orthogonalEdgeStyle;rounded=0;orthogonalLoop=1;jettySize=auto;html=1;entryX=0.992;entryY=0.583;entryDx=0;entryDy=0;entryPerimeter=0;" parent="1" source="Z6DqX2Q6N9hcz0Q6o6Eb-5" target="7ZGVWivCl3pS3FGv6aAp-2" edge="1">
          <mxGeometry relative="1" as="geometry" />
        </mxCell>
        <mxCell id="7ZGVWivCl3pS3FGv6aAp-7" value="&lt;font style=&quot;font-size: 12px;&quot;&gt;Mother&lt;/font&gt;" style="edgeLabel;html=1;align=center;verticalAlign=middle;resizable=0;points=[];" parent="7ZGVWivCl3pS3FGv6aAp-6" vertex="1" connectable="0">
          <mxGeometry x="-0.1242" y="-2" relative="1" as="geometry">
            <mxPoint x="2" y="5" as="offset" />
          </mxGeometry>
        </mxCell>
        <mxCell id="E40xgfIjvLocVmsAz19t-1" style="edgeStyle=orthogonalEdgeStyle;rounded=0;orthogonalLoop=1;jettySize=auto;html=1;exitX=1;exitY=0.5;exitDx=0;exitDy=0;entryX=0;entryY=0.5;entryDx=0;entryDy=0;" parent="1" source="Z6DqX2Q6N9hcz0Q6o6Eb-2" target="Z6DqX2Q6N9hcz0Q6o6Eb-5" edge="1">
          <mxGeometry relative="1" as="geometry">
            <mxPoint x="670" y="120" as="targetPoint" />
          </mxGeometry>
        </mxCell>
        <mxCell id="E40xgfIjvLocVmsAz19t-2" value="&lt;font style=&quot;font-size: 12px;&quot;&gt;Partner&lt;/font&gt;" style="edgeLabel;html=1;align=center;verticalAlign=middle;resizable=0;points=[];" parent="E40xgfIjvLocVmsAz19t-1" vertex="1" connectable="0">
          <mxGeometry x="-0.0045" relative="1" as="geometry">
            <mxPoint as="offset" />
          </mxGeometry>
        </mxCell>
        <mxCell id="dfbj2umnw42S1evYhiyX-8" value="" style="group" parent="1" vertex="1" connectable="0">
          <mxGeometry x="120" y="60" width="120" height="120" as="geometry" />
        </mxCell>
        <mxCell id="dfbj2umnw42S1evYhiyX-11" style="edgeStyle=orthogonalEdgeStyle;rounded=0;orthogonalLoop=1;jettySize=auto;html=1;" parent="dfbj2umnw42S1evYhiyX-8" source="dfbj2umnw42S1evYhiyX-9" edge="1">
          <mxGeometry relative="1" as="geometry">
            <mxPoint x="320" y="60" as="targetPoint" />
          </mxGeometry>
        </mxCell>
        <mxCell id="dfbj2umnw42S1evYhiyX-12" value="&lt;div style=&quot;font-size: 12px; line-height: 18px; white-space-collapse: preserve;&quot;&gt;&lt;font face=&quot;Helvetica&quot; style=&quot;color: rgb(0, 0, 0);&quot;&gt;Adoptive Father&lt;/font&gt;&lt;/div&gt;" style="edgeLabel;html=1;align=center;verticalAlign=middle;resizable=0;points=[];" parent="dfbj2umnw42S1evYhiyX-11" vertex="1" connectable="0">
          <mxGeometry x="-0.1122" relative="1" as="geometry">
            <mxPoint as="offset" />
          </mxGeometry>
        </mxCell>
        <mxCell id="dfbj2umnw42S1evYhiyX-9" value="&lt;div style=&quot;font-family: Menlo, Monaco, &amp;quot;Courier New&amp;quot;, monospace; line-height: 18px; white-space: pre;&quot;&gt;&lt;div style=&quot;line-height: 18px;&quot;&gt;&lt;font style=&quot;color: rgb(0, 0, 0);&quot;&gt;Carlisle Cullen&lt;/font&gt;&lt;/div&gt;&lt;/div&gt;" style="ellipse;whiteSpace=wrap;html=1;aspect=fixed;" parent="dfbj2umnw42S1evYhiyX-8" vertex="1">
          <mxGeometry width="120" height="120" as="geometry" />
        </mxCell>
        <mxCell id="dfbj2umnw42S1evYhiyX-10" value="6" style="ellipse;whiteSpace=wrap;html=1;aspect=fixed;" parent="dfbj2umnw42S1evYhiyX-8" vertex="1">
          <mxGeometry x="37.5" width="45" height="45" as="geometry" />
        </mxCell>
        <mxCell id="wLUuKgKdLUynodLC2WmH-1" value="" style="group" parent="1" vertex="1" connectable="0">
          <mxGeometry x="280" y="435" width="120" height="150" as="geometry" />
        </mxCell>
        <mxCell id="wLUuKgKdLUynodLC2WmH-2" value="&lt;div style=&quot;font-family: Menlo, Monaco, &amp;quot;Courier New&amp;quot;, monospace; line-height: 18px; white-space: pre;&quot;&gt;&lt;div style=&quot;line-height: 18px;&quot;&gt;&lt;span&gt;&lt;font style=&quot;color: rgb(0, 0, 0);&quot;&gt;Emmett Cullen&lt;/font&gt;&lt;/span&gt;&lt;/div&gt;&lt;/div&gt;" style="ellipse;whiteSpace=wrap;html=1;aspect=fixed;" parent="wLUuKgKdLUynodLC2WmH-1" vertex="1">
          <mxGeometry width="120" height="120" as="geometry" />
        </mxCell>
        <mxCell id="wLUuKgKdLUynodLC2WmH-3" value="10" style="ellipse;whiteSpace=wrap;html=1;aspect=fixed;" parent="wLUuKgKdLUynodLC2WmH-1" vertex="1">
          <mxGeometry x="37.5" width="45" height="45" as="geometry" />
        </mxCell>
        <mxCell id="wLUuKgKdLUynodLC2WmH-4" value="" style="group" parent="1" vertex="1" connectable="0">
          <mxGeometry x="40" y="435" width="120" height="120" as="geometry" />
        </mxCell>
        <mxCell id="wLUuKgKdLUynodLC2WmH-5" value="&lt;div style=&quot;font-family: Menlo, Monaco, &amp;quot;Courier New&amp;quot;, monospace; line-height: 18px; white-space: pre;&quot;&gt;&lt;div style=&quot;line-height: 18px;&quot;&gt;&lt;span&gt;&lt;font style=&quot;color: rgb(0, 0, 0);&quot;&gt;Rosalie Hale&lt;/font&gt;&lt;/span&gt;&lt;/div&gt;&lt;/div&gt;" style="ellipse;whiteSpace=wrap;html=1;aspect=fixed;" parent="wLUuKgKdLUynodLC2WmH-4" vertex="1">
          <mxGeometry width="120" height="120" as="geometry" />
        </mxCell>
        <mxCell id="wLUuKgKdLUynodLC2WmH-6" value="9" style="ellipse;whiteSpace=wrap;html=1;aspect=fixed;" parent="wLUuKgKdLUynodLC2WmH-4" vertex="1">
          <mxGeometry x="37.5" width="45" height="45" as="geometry" />
        </mxCell>
        <mxCell id="wLUuKgKdLUynodLC2WmH-7" style="edgeStyle=orthogonalEdgeStyle;rounded=0;orthogonalLoop=1;jettySize=auto;html=1;entryX=0;entryY=0.5;entryDx=0;entryDy=0;" parent="1" source="wLUuKgKdLUynodLC2WmH-5" target="wLUuKgKdLUynodLC2WmH-2" edge="1">
          <mxGeometry relative="1" as="geometry" />
        </mxCell>
        <mxCell id="wLUuKgKdLUynodLC2WmH-8" value="&lt;font style=&quot;font-size: 12px;&quot;&gt;Partner&lt;/font&gt;" style="edgeLabel;html=1;align=center;verticalAlign=middle;resizable=0;points=[];" parent="wLUuKgKdLUynodLC2WmH-7" vertex="1" connectable="0">
          <mxGeometry x="0.0167" y="2" relative="1" as="geometry">
            <mxPoint y="1" as="offset" />
          </mxGeometry>
        </mxCell>
        <mxCell id="wLUuKgKdLUynodLC2WmH-9" style="edgeStyle=orthogonalEdgeStyle;rounded=0;orthogonalLoop=1;jettySize=auto;html=1;entryX=0.5;entryY=0;entryDx=0;entryDy=0;" parent="1" source="dfbj2umnw42S1evYhiyX-9" target="wLUuKgKdLUynodLC2WmH-6" edge="1">
          <mxGeometry relative="1" as="geometry">
            <Array as="points">
              <mxPoint x="100" y="120" />
            </Array>
          </mxGeometry>
        </mxCell>
        <mxCell id="wLUuKgKdLUynodLC2WmH-10" value="&lt;span style=&quot;font-size: 12px; white-space-collapse: preserve;&quot;&gt;Adoptive Father&lt;/span&gt;" style="edgeLabel;html=1;align=center;verticalAlign=middle;resizable=0;points=[];" parent="wLUuKgKdLUynodLC2WmH-9" vertex="1" connectable="0">
          <mxGeometry x="-0.0209" y="2" relative="1" as="geometry">
            <mxPoint as="offset" />
          </mxGeometry>
        </mxCell>
        <mxCell id="wLUuKgKdLUynodLC2WmH-11" style="edgeStyle=orthogonalEdgeStyle;rounded=0;orthogonalLoop=1;jettySize=auto;html=1;entryX=0.5;entryY=0;entryDx=0;entryDy=0;" parent="1" source="dfbj2umnw42S1evYhiyX-9" target="wLUuKgKdLUynodLC2WmH-2" edge="1">
          <mxGeometry relative="1" as="geometry">
            <Array as="points">
              <mxPoint x="180" y="240" />
              <mxPoint x="340" y="240" />
            </Array>
          </mxGeometry>
        </mxCell>
        <mxCell id="wLUuKgKdLUynodLC2WmH-12" value="&lt;span style=&quot;font-size: 12px; white-space-collapse: preserve;&quot;&gt;Adoptive Father&lt;/span&gt;" style="edgeLabel;html=1;align=center;verticalAlign=middle;resizable=0;points=[];" parent="wLUuKgKdLUynodLC2WmH-11" vertex="1" connectable="0">
          <mxGeometry x="-0.2627" relative="1" as="geometry">
            <mxPoint as="offset" />
          </mxGeometry>
        </mxCell>
      </root>
    </mxGraphModel>
  </diagram>
  <diagram id="XgMpoPPlSbkMYkQ51PWa" name="LivedIn(Проживание)">
    <mxGraphModel dx="697" dy="1084" grid="1" gridSize="10" guides="1" tooltips="1" connect="1" arrows="1" fold="1" page="1" pageScale="1" pageWidth="827" pageHeight="1169" math="0" shadow="0">
      <root>
        <mxCell id="0" />
        <mxCell id="1" parent="0" />
        <mxCell id="SJd_UUiRmPfiOTQNS0_J-1" value="" style="group" vertex="1" connectable="0" parent="1">
          <mxGeometry x="40" y="50" width="120" height="120" as="geometry" />
        </mxCell>
        <mxCell id="SJd_UUiRmPfiOTQNS0_J-2" value="&lt;div style=&quot;font-family: Menlo, Monaco, &amp;quot;Courier New&amp;quot;, monospace; line-height: 18px; white-space: pre;&quot;&gt;&lt;span&gt;&lt;font style=&quot;color: rgb(0, 0, 0);&quot;&gt;Edward Cullen&lt;/font&gt;&lt;/span&gt;&lt;/div&gt;" style="ellipse;whiteSpace=wrap;html=1;aspect=fixed;" vertex="1" parent="SJd_UUiRmPfiOTQNS0_J-1">
          <mxGeometry width="120" height="120" as="geometry" />
        </mxCell>
        <mxCell id="SJd_UUiRmPfiOTQNS0_J-3" value="1" style="ellipse;whiteSpace=wrap;html=1;aspect=fixed;" vertex="1" parent="SJd_UUiRmPfiOTQNS0_J-1">
          <mxGeometry x="37.5" width="45" height="45" as="geometry" />
        </mxCell>
        <mxCell id="h4KMl6IOnSz_yk3aAaV_-1" value="" style="group" vertex="1" connectable="0" parent="1">
          <mxGeometry x="350" y="60" width="160" height="120" as="geometry" />
        </mxCell>
        <mxCell id="h4KMl6IOnSz_yk3aAaV_-2" value="&lt;div style=&quot;font-family: Menlo, Monaco, &amp;quot;Courier New&amp;quot;, monospace; line-height: 18px; white-space: pre;&quot;&gt;&lt;div style=&quot;line-height: 18px;&quot;&gt;&lt;span&gt;&lt;font style=&quot;color: rgb(0, 0, 0);&quot;&gt;Cullen House&lt;/font&gt;&lt;/span&gt;&lt;/div&gt;&lt;/div&gt;" style="ellipse;shape=cloud;whiteSpace=wrap;html=1;" vertex="1" parent="h4KMl6IOnSz_yk3aAaV_-1">
          <mxGeometry y="9.230769230769232" width="160" height="110.76923076923077" as="geometry" />
        </mxCell>
        <mxCell id="h4KMl6IOnSz_yk3aAaV_-3" value="4" style="ellipse;shape=cloud;whiteSpace=wrap;html=1;" vertex="1" parent="h4KMl6IOnSz_yk3aAaV_-1">
          <mxGeometry x="47.05882352941176" width="65.88235294117646" height="46.15384615384615" as="geometry" />
        </mxCell>
        <mxCell id="h4KMl6IOnSz_yk3aAaV_-4" style="edgeStyle=orthogonalEdgeStyle;rounded=0;orthogonalLoop=1;jettySize=auto;html=1;entryX=0.07;entryY=0.4;entryDx=0;entryDy=0;entryPerimeter=0;" edge="1" parent="1" source="SJd_UUiRmPfiOTQNS0_J-2" target="h4KMl6IOnSz_yk3aAaV_-2">
          <mxGeometry relative="1" as="geometry" />
        </mxCell>
        <mxCell id="21lrhq15-DRyvr8_Th0I-1" value="" style="group" vertex="1" connectable="0" parent="1">
          <mxGeometry x="40" y="465" width="120" height="120" as="geometry" />
        </mxCell>
        <mxCell id="21lrhq15-DRyvr8_Th0I-2" value="&lt;div style=&quot;font-family: Menlo, Monaco, &amp;quot;Courier New&amp;quot;, monospace; line-height: 18px; white-space: pre;&quot;&gt;&lt;div style=&quot;line-height: 18px;&quot;&gt;&lt;span&gt;&lt;font style=&quot;color: rgb(0, 0, 0);&quot;&gt;Bella Swan&lt;/font&gt;&lt;/span&gt;&lt;/div&gt;&lt;/div&gt;" style="ellipse;whiteSpace=wrap;html=1;aspect=fixed;" vertex="1" parent="21lrhq15-DRyvr8_Th0I-1">
          <mxGeometry width="120" height="120" as="geometry" />
        </mxCell>
        <mxCell id="21lrhq15-DRyvr8_Th0I-3" value="2" style="ellipse;whiteSpace=wrap;html=1;aspect=fixed;" vertex="1" parent="21lrhq15-DRyvr8_Th0I-1">
          <mxGeometry x="37.5" width="45" height="45" as="geometry" />
        </mxCell>
        <mxCell id="e-hbuDab_djsMKhQk3JL-1" value="" style="group" vertex="1" connectable="0" parent="1">
          <mxGeometry x="334" y="465" width="160" height="120" as="geometry" />
        </mxCell>
        <mxCell id="e-hbuDab_djsMKhQk3JL-2" value="&lt;div style=&quot;font-family: Menlo, Monaco, &amp;quot;Courier New&amp;quot;, monospace; line-height: 18px; white-space: pre;&quot;&gt;&lt;div style=&quot;line-height: 18px;&quot;&gt;&lt;span&gt;&lt;font style=&quot;color: rgb(0, 0, 0);&quot;&gt;Bella&#39;s House&lt;/font&gt;&lt;/span&gt;&lt;/div&gt;&lt;/div&gt;" style="ellipse;shape=cloud;whiteSpace=wrap;html=1;" vertex="1" parent="e-hbuDab_djsMKhQk3JL-1">
          <mxGeometry y="9.230769230769232" width="160" height="110.76923076923077" as="geometry" />
        </mxCell>
        <mxCell id="e-hbuDab_djsMKhQk3JL-3" value="7" style="ellipse;shape=cloud;whiteSpace=wrap;html=1;" vertex="1" parent="e-hbuDab_djsMKhQk3JL-1">
          <mxGeometry x="47.05882352941176" width="65.88235294117646" height="46.15384615384615" as="geometry" />
        </mxCell>
        <mxCell id="e-hbuDab_djsMKhQk3JL-4" style="edgeStyle=orthogonalEdgeStyle;rounded=0;orthogonalLoop=1;jettySize=auto;html=1;entryX=0.07;entryY=0.4;entryDx=0;entryDy=0;entryPerimeter=0;" edge="1" parent="1" source="21lrhq15-DRyvr8_Th0I-2" target="e-hbuDab_djsMKhQk3JL-2">
          <mxGeometry relative="1" as="geometry" />
        </mxCell>
        <mxCell id="3XpqrBSpEkPpbxHLeGFV-1" value="" style="group" vertex="1" connectable="0" parent="1">
          <mxGeometry x="40" y="630" width="120" height="120" as="geometry" />
        </mxCell>
        <mxCell id="3XpqrBSpEkPpbxHLeGFV-2" value="&lt;div style=&quot;font-family: Menlo, Monaco, &amp;quot;Courier New&amp;quot;, monospace; line-height: 18px; white-space: pre;&quot;&gt;&lt;div style=&quot;line-height: 18px;&quot;&gt;&lt;span&gt;&lt;font style=&quot;color: rgb(0, 0, 0);&quot;&gt;Jacob Black&lt;/font&gt;&lt;/span&gt;&lt;/div&gt;&lt;/div&gt;" style="ellipse;whiteSpace=wrap;html=1;aspect=fixed;" vertex="1" parent="3XpqrBSpEkPpbxHLeGFV-1">
          <mxGeometry width="120" height="120" as="geometry" />
        </mxCell>
        <mxCell id="3XpqrBSpEkPpbxHLeGFV-3" value="3" style="ellipse;whiteSpace=wrap;html=1;aspect=fixed;" vertex="1" parent="3XpqrBSpEkPpbxHLeGFV-1">
          <mxGeometry x="37.5" width="45" height="45" as="geometry" />
        </mxCell>
        <mxCell id="bt-79P9zH9nYbk7hRlmC-1" value="" style="group" vertex="1" connectable="0" parent="1">
          <mxGeometry x="334" y="630" width="160" height="120" as="geometry" />
        </mxCell>
        <mxCell id="bt-79P9zH9nYbk7hRlmC-2" value="&lt;div style=&quot;font-family: Menlo, Monaco, &amp;quot;Courier New&amp;quot;, monospace; line-height: 18px; white-space: pre;&quot;&gt;&lt;div style=&quot;line-height: 18px;&quot;&gt;&lt;span&gt;&lt;font style=&quot;color: rgb(0, 0, 0);&quot;&gt;La Push&lt;/font&gt;&lt;/span&gt;&lt;/div&gt;&lt;/div&gt;" style="ellipse;shape=cloud;whiteSpace=wrap;html=1;" vertex="1" parent="bt-79P9zH9nYbk7hRlmC-1">
          <mxGeometry y="9.230769230769232" width="160" height="110.76923076923077" as="geometry" />
        </mxCell>
        <mxCell id="bt-79P9zH9nYbk7hRlmC-3" value="2" style="ellipse;shape=cloud;whiteSpace=wrap;html=1;" vertex="1" parent="bt-79P9zH9nYbk7hRlmC-1">
          <mxGeometry x="47.05882352941176" width="65.88235294117646" height="46.15384615384615" as="geometry" />
        </mxCell>
        <mxCell id="bt-79P9zH9nYbk7hRlmC-4" style="edgeStyle=orthogonalEdgeStyle;rounded=0;orthogonalLoop=1;jettySize=auto;html=1;entryX=0.07;entryY=0.4;entryDx=0;entryDy=0;entryPerimeter=0;" edge="1" parent="1" source="3XpqrBSpEkPpbxHLeGFV-2" target="bt-79P9zH9nYbk7hRlmC-2">
          <mxGeometry relative="1" as="geometry" />
        </mxCell>
        <mxCell id="LWhH6vLplZWHM8qkzw2P-1" value="" style="group" vertex="1" connectable="0" parent="1">
          <mxGeometry x="40" y="810" width="120" height="120" as="geometry" />
        </mxCell>
        <mxCell id="LWhH6vLplZWHM8qkzw2P-2" value="&lt;div style=&quot;font-family: Menlo, Monaco, &amp;quot;Courier New&amp;quot;, monospace; line-height: 18px; white-space: pre;&quot;&gt;&lt;div style=&quot;line-height: 18px;&quot;&gt;&lt;span&gt;&lt;font style=&quot;color: rgb(0, 0, 0);&quot;&gt;Aro&lt;/font&gt;&lt;/span&gt;&lt;/div&gt;&lt;/div&gt;" style="ellipse;whiteSpace=wrap;html=1;aspect=fixed;" vertex="1" parent="LWhH6vLplZWHM8qkzw2P-1">
          <mxGeometry width="120" height="120" as="geometry" />
        </mxCell>
        <mxCell id="LWhH6vLplZWHM8qkzw2P-3" value="5" style="ellipse;whiteSpace=wrap;html=1;aspect=fixed;" vertex="1" parent="LWhH6vLplZWHM8qkzw2P-1">
          <mxGeometry x="37.5" width="45" height="45" as="geometry" />
        </mxCell>
        <mxCell id="vJEhfUfeGYZcgYWD1Ot1-1" value="" style="group" vertex="1" connectable="0" parent="1">
          <mxGeometry x="334" y="810" width="160" height="120" as="geometry" />
        </mxCell>
        <mxCell id="vJEhfUfeGYZcgYWD1Ot1-2" value="&lt;div style=&quot;font-family: Menlo, Monaco, &amp;quot;Courier New&amp;quot;, monospace; line-height: 18px; white-space: pre;&quot;&gt;&lt;div style=&quot;line-height: 18px;&quot;&gt;&lt;span&gt;&lt;font style=&quot;color: rgb(0, 0, 0);&quot;&gt;Volturi Hall&lt;/font&gt;&lt;/span&gt;&lt;/div&gt;&lt;/div&gt;" style="ellipse;shape=cloud;whiteSpace=wrap;html=1;" vertex="1" parent="vJEhfUfeGYZcgYWD1Ot1-1">
          <mxGeometry y="9.230769230769232" width="160" height="110.76923076923077" as="geometry" />
        </mxCell>
        <mxCell id="vJEhfUfeGYZcgYWD1Ot1-3" value="8" style="ellipse;shape=cloud;whiteSpace=wrap;html=1;" vertex="1" parent="vJEhfUfeGYZcgYWD1Ot1-1">
          <mxGeometry x="47.05882352941176" width="65.88235294117646" height="46.15384615384615" as="geometry" />
        </mxCell>
        <mxCell id="vJEhfUfeGYZcgYWD1Ot1-4" style="edgeStyle=orthogonalEdgeStyle;rounded=0;orthogonalLoop=1;jettySize=auto;html=1;entryX=0.07;entryY=0.4;entryDx=0;entryDy=0;entryPerimeter=0;" edge="1" parent="1" source="LWhH6vLplZWHM8qkzw2P-2" target="vJEhfUfeGYZcgYWD1Ot1-2">
          <mxGeometry relative="1" as="geometry" />
        </mxCell>
        <mxCell id="G6l8omNusopbpKJk8PQy-1" value="" style="group" vertex="1" connectable="0" parent="1">
          <mxGeometry x="660" y="50" width="120" height="120" as="geometry" />
        </mxCell>
        <mxCell id="G6l8omNusopbpKJk8PQy-2" value="&lt;div style=&quot;font-family: Menlo, Monaco, &amp;quot;Courier New&amp;quot;, monospace; line-height: 18px; white-space: pre;&quot;&gt;&lt;div style=&quot;line-height: 18px;&quot;&gt;&lt;font style=&quot;color: rgb(0, 0, 0);&quot;&gt;Renesmee Cullen&lt;/font&gt;&lt;/div&gt;&lt;/div&gt;" style="ellipse;whiteSpace=wrap;html=1;aspect=fixed;" vertex="1" parent="G6l8omNusopbpKJk8PQy-1">
          <mxGeometry width="120" height="120" as="geometry" />
        </mxCell>
        <mxCell id="G6l8omNusopbpKJk8PQy-3" value="7" style="ellipse;whiteSpace=wrap;html=1;aspect=fixed;" vertex="1" parent="G6l8omNusopbpKJk8PQy-1">
          <mxGeometry x="37.5" width="45" height="45" as="geometry" />
        </mxCell>
        <mxCell id="G6l8omNusopbpKJk8PQy-4" style="edgeStyle=orthogonalEdgeStyle;rounded=0;orthogonalLoop=1;jettySize=auto;html=1;entryX=0.906;entryY=0.368;entryDx=0;entryDy=0;entryPerimeter=0;" edge="1" parent="1" source="G6l8omNusopbpKJk8PQy-2" target="h4KMl6IOnSz_yk3aAaV_-2">
          <mxGeometry relative="1" as="geometry" />
        </mxCell>
        <mxCell id="skF9nlGs63CEgSf9Qc8y-1" value="" style="group" vertex="1" connectable="0" parent="1">
          <mxGeometry x="620" y="210" width="120" height="120" as="geometry" />
        </mxCell>
        <mxCell id="skF9nlGs63CEgSf9Qc8y-2" value="&lt;div style=&quot;font-family: Menlo, Monaco, &amp;quot;Courier New&amp;quot;, monospace; line-height: 18px; white-space: pre;&quot;&gt;&lt;div style=&quot;line-height: 18px;&quot;&gt;&lt;span&gt;&lt;font style=&quot;color: rgb(0, 0, 0);&quot;&gt;Rosalie Hale&lt;/font&gt;&lt;/span&gt;&lt;/div&gt;&lt;/div&gt;" style="ellipse;whiteSpace=wrap;html=1;aspect=fixed;" vertex="1" parent="skF9nlGs63CEgSf9Qc8y-1">
          <mxGeometry width="120" height="120" as="geometry" />
        </mxCell>
        <mxCell id="skF9nlGs63CEgSf9Qc8y-3" value="9" style="ellipse;whiteSpace=wrap;html=1;aspect=fixed;" vertex="1" parent="skF9nlGs63CEgSf9Qc8y-1">
          <mxGeometry x="37.5" width="45" height="45" as="geometry" />
        </mxCell>
        <mxCell id="skF9nlGs63CEgSf9Qc8y-6" style="edgeStyle=orthogonalEdgeStyle;rounded=0;orthogonalLoop=1;jettySize=auto;html=1;entryX=0.875;entryY=0.5;entryDx=0;entryDy=0;entryPerimeter=0;" edge="1" parent="1" source="skF9nlGs63CEgSf9Qc8y-2" target="h4KMl6IOnSz_yk3aAaV_-2">
          <mxGeometry relative="1" as="geometry">
            <Array as="points">
              <mxPoint x="540" y="270" />
              <mxPoint x="540" y="125" />
            </Array>
          </mxGeometry>
        </mxCell>
        <mxCell id="SklPpgjOA5ojyLiF5goF-1" value="" style="group" vertex="1" connectable="0" parent="1">
          <mxGeometry x="450" y="330" width="120" height="150" as="geometry" />
        </mxCell>
        <mxCell id="SklPpgjOA5ojyLiF5goF-2" value="&lt;div style=&quot;font-family: Menlo, Monaco, &amp;quot;Courier New&amp;quot;, monospace; line-height: 18px; white-space: pre;&quot;&gt;&lt;div style=&quot;line-height: 18px;&quot;&gt;&lt;span&gt;&lt;font style=&quot;color: rgb(0, 0, 0);&quot;&gt;Emmett Cullen&lt;/font&gt;&lt;/span&gt;&lt;/div&gt;&lt;/div&gt;" style="ellipse;whiteSpace=wrap;html=1;aspect=fixed;" vertex="1" parent="SklPpgjOA5ojyLiF5goF-1">
          <mxGeometry width="120" height="120" as="geometry" />
        </mxCell>
        <mxCell id="SklPpgjOA5ojyLiF5goF-3" value="10" style="ellipse;whiteSpace=wrap;html=1;aspect=fixed;" vertex="1" parent="SklPpgjOA5ojyLiF5goF-1">
          <mxGeometry x="37.5" width="45" height="45" as="geometry" />
        </mxCell>
        <mxCell id="SklPpgjOA5ojyLiF5goF-5" style="edgeStyle=orthogonalEdgeStyle;rounded=0;orthogonalLoop=1;jettySize=auto;html=1;entryX=0.55;entryY=0.95;entryDx=0;entryDy=0;entryPerimeter=0;" edge="1" parent="1" source="SklPpgjOA5ojyLiF5goF-2" target="h4KMl6IOnSz_yk3aAaV_-2">
          <mxGeometry relative="1" as="geometry" />
        </mxCell>
        <mxCell id="Nyy8Pbqbdu8wac69htFD-1" value="" style="group" vertex="1" connectable="0" parent="1">
          <mxGeometry x="200" y="300" width="120" height="120" as="geometry" />
        </mxCell>
        <mxCell id="Nyy8Pbqbdu8wac69htFD-2" value="&lt;div style=&quot;font-family: Menlo, Monaco, &amp;quot;Courier New&amp;quot;, monospace; line-height: 18px; white-space: pre;&quot;&gt;&lt;div style=&quot;line-height: 18px;&quot;&gt;&lt;span&gt;&lt;font style=&quot;color: rgb(0, 0, 0);&quot;&gt;Alice Cullen&lt;/font&gt;&lt;/span&gt;&lt;/div&gt;&lt;/div&gt;" style="ellipse;whiteSpace=wrap;html=1;aspect=fixed;" vertex="1" parent="Nyy8Pbqbdu8wac69htFD-1">
          <mxGeometry width="120" height="120" as="geometry" />
        </mxCell>
        <mxCell id="Nyy8Pbqbdu8wac69htFD-3" value="4" style="ellipse;whiteSpace=wrap;html=1;aspect=fixed;" vertex="1" parent="Nyy8Pbqbdu8wac69htFD-1">
          <mxGeometry x="37.5" width="45" height="45" as="geometry" />
        </mxCell>
        <mxCell id="Nyy8Pbqbdu8wac69htFD-4" style="edgeStyle=orthogonalEdgeStyle;rounded=0;orthogonalLoop=1;jettySize=auto;html=1;entryX=0.419;entryY=0.901;entryDx=0;entryDy=0;entryPerimeter=0;" edge="1" parent="1" source="Nyy8Pbqbdu8wac69htFD-2" target="h4KMl6IOnSz_yk3aAaV_-2">
          <mxGeometry relative="1" as="geometry" />
        </mxCell>
        <mxCell id="MjbA251zVnq7-MPYiALG-1" value="" style="group" vertex="1" connectable="0" parent="1">
          <mxGeometry x="660" y="810" width="120" height="120" as="geometry" />
        </mxCell>
        <mxCell id="MjbA251zVnq7-MPYiALG-2" value="&lt;div style=&quot;font-family: Menlo, Monaco, &amp;quot;Courier New&amp;quot;, monospace; line-height: 18px; white-space: pre;&quot;&gt;&lt;div style=&quot;line-height: 18px;&quot;&gt;&lt;span&gt;&lt;font style=&quot;color: rgb(0, 0, 0);&quot;&gt;Jane&lt;/font&gt;&lt;/span&gt;&lt;/div&gt;&lt;/div&gt;" style="ellipse;whiteSpace=wrap;html=1;aspect=fixed;" vertex="1" parent="MjbA251zVnq7-MPYiALG-1">
          <mxGeometry width="120" height="120" as="geometry" />
        </mxCell>
        <mxCell id="MjbA251zVnq7-MPYiALG-3" value="8" style="ellipse;whiteSpace=wrap;html=1;aspect=fixed;" vertex="1" parent="MjbA251zVnq7-MPYiALG-1">
          <mxGeometry x="37.5" width="45" height="45" as="geometry" />
        </mxCell>
        <mxCell id="MjbA251zVnq7-MPYiALG-4" style="edgeStyle=orthogonalEdgeStyle;rounded=0;orthogonalLoop=1;jettySize=auto;html=1;entryX=0.906;entryY=0.368;entryDx=0;entryDy=0;entryPerimeter=0;" edge="1" parent="1" source="MjbA251zVnq7-MPYiALG-2" target="vJEhfUfeGYZcgYWD1Ot1-2">
          <mxGeometry relative="1" as="geometry" />
        </mxCell>
        <mxCell id="ftBQ8tR241gmOkRfJCeN-1" value="" style="group" vertex="1" connectable="0" parent="1">
          <mxGeometry x="70" y="200" width="120" height="120" as="geometry" />
        </mxCell>
        <mxCell id="ftBQ8tR241gmOkRfJCeN-2" value="&lt;div style=&quot;font-family: Menlo, Monaco, &amp;quot;Courier New&amp;quot;, monospace; line-height: 18px; white-space: pre;&quot;&gt;&lt;div style=&quot;line-height: 18px;&quot;&gt;&lt;font style=&quot;color: rgb(0, 0, 0);&quot;&gt;Carlisle Cullen&lt;/font&gt;&lt;/div&gt;&lt;/div&gt;" style="ellipse;whiteSpace=wrap;html=1;aspect=fixed;" vertex="1" parent="ftBQ8tR241gmOkRfJCeN-1">
          <mxGeometry width="120" height="120" as="geometry" />
        </mxCell>
        <mxCell id="ftBQ8tR241gmOkRfJCeN-3" value="6" style="ellipse;whiteSpace=wrap;html=1;aspect=fixed;" vertex="1" parent="ftBQ8tR241gmOkRfJCeN-1">
          <mxGeometry x="37.5" width="45" height="45" as="geometry" />
        </mxCell>
        <mxCell id="ftBQ8tR241gmOkRfJCeN-4" style="edgeStyle=orthogonalEdgeStyle;rounded=0;orthogonalLoop=1;jettySize=auto;html=1;entryX=0.31;entryY=0.8;entryDx=0;entryDy=0;entryPerimeter=0;" edge="1" parent="1" source="ftBQ8tR241gmOkRfJCeN-2" target="h4KMl6IOnSz_yk3aAaV_-2">
          <mxGeometry relative="1" as="geometry">
            <mxPoint x="380" y="180" as="targetPoint" />
          </mxGeometry>
        </mxCell>
      </root>
    </mxGraphModel>
  </diagram>
  <diagram id="sd_JBJsuJI2h6UnJI50Q" name="Owns(Владение артефактами)">
    <mxGraphModel dx="479" dy="903" grid="1" gridSize="10" guides="1" tooltips="1" connect="1" arrows="1" fold="1" page="1" pageScale="1" pageWidth="827" pageHeight="1169" math="0" shadow="0">
      <root>
        <mxCell id="0" />
        <mxCell id="1" parent="0" />
        <mxCell id="jESdNgC168ewm_s6KUY8-1" value="" style="group" vertex="1" connectable="0" parent="1">
          <mxGeometry x="219" y="1010" width="120" height="120" as="geometry" />
        </mxCell>
        <mxCell id="jESdNgC168ewm_s6KUY8-2" value="&lt;div style=&quot;font-family: Menlo, Monaco, &amp;quot;Courier New&amp;quot;, monospace; line-height: 18px; white-space: pre;&quot;&gt;&lt;span&gt;&lt;font style=&quot;color: rgb(0, 0, 0);&quot;&gt;Edward Cullen&lt;/font&gt;&lt;/span&gt;&lt;/div&gt;" style="ellipse;whiteSpace=wrap;html=1;aspect=fixed;" vertex="1" parent="jESdNgC168ewm_s6KUY8-1">
          <mxGeometry width="120" height="120" as="geometry" />
        </mxCell>
        <mxCell id="jESdNgC168ewm_s6KUY8-3" value="1" style="ellipse;whiteSpace=wrap;html=1;aspect=fixed;" vertex="1" parent="jESdNgC168ewm_s6KUY8-1">
          <mxGeometry x="37.5" width="45" height="45" as="geometry" />
        </mxCell>
        <mxCell id="jESdNgC168ewm_s6KUY8-4" value="" style="group" vertex="1" connectable="0" parent="1">
          <mxGeometry x="40" y="80" width="120" height="120" as="geometry" />
        </mxCell>
        <mxCell id="jESdNgC168ewm_s6KUY8-5" value="&lt;div style=&quot;font-family: Menlo, Monaco, &amp;quot;Courier New&amp;quot;, monospace; line-height: 18px; white-space: pre;&quot;&gt;&lt;div style=&quot;line-height: 18px;&quot;&gt;&lt;span&gt;&lt;font style=&quot;color: rgb(0, 0, 0);&quot;&gt;Bella Swan&lt;/font&gt;&lt;/span&gt;&lt;/div&gt;&lt;/div&gt;" style="ellipse;whiteSpace=wrap;html=1;aspect=fixed;" vertex="1" parent="jESdNgC168ewm_s6KUY8-4">
          <mxGeometry width="120" height="120" as="geometry" />
        </mxCell>
        <mxCell id="jESdNgC168ewm_s6KUY8-6" value="2" style="ellipse;whiteSpace=wrap;html=1;aspect=fixed;" vertex="1" parent="jESdNgC168ewm_s6KUY8-4">
          <mxGeometry x="37.5" width="45" height="45" as="geometry" />
        </mxCell>
        <mxCell id="jESdNgC168ewm_s6KUY8-7" value="" style="group" vertex="1" connectable="0" parent="1">
          <mxGeometry x="480" y="80" width="120" height="120" as="geometry" />
        </mxCell>
        <mxCell id="jESdNgC168ewm_s6KUY8-8" value="&lt;div style=&quot;font-family: Menlo, Monaco, &amp;quot;Courier New&amp;quot;, monospace; line-height: 18px; white-space: pre;&quot;&gt;&lt;div style=&quot;line-height: 18px;&quot;&gt;&lt;span&gt;&lt;font style=&quot;color: rgb(0, 0, 0);&quot;&gt;Jacob Black&lt;/font&gt;&lt;/span&gt;&lt;/div&gt;&lt;/div&gt;" style="ellipse;whiteSpace=wrap;html=1;aspect=fixed;" vertex="1" parent="jESdNgC168ewm_s6KUY8-7">
          <mxGeometry width="120" height="120" as="geometry" />
        </mxCell>
        <mxCell id="jESdNgC168ewm_s6KUY8-9" value="3" style="ellipse;whiteSpace=wrap;html=1;aspect=fixed;" vertex="1" parent="jESdNgC168ewm_s6KUY8-7">
          <mxGeometry x="37.5" width="45" height="45" as="geometry" />
        </mxCell>
        <mxCell id="jESdNgC168ewm_s6KUY8-10" value="" style="group" vertex="1" connectable="0" parent="1">
          <mxGeometry x="169" y="700" width="120" height="150" as="geometry" />
        </mxCell>
        <mxCell id="jESdNgC168ewm_s6KUY8-11" value="&lt;div style=&quot;font-family: Menlo, Monaco, &amp;quot;Courier New&amp;quot;, monospace; line-height: 18px; white-space: pre;&quot;&gt;&lt;div style=&quot;line-height: 18px;&quot;&gt;&lt;span&gt;&lt;font style=&quot;color: rgb(0, 0, 0);&quot;&gt;Emmett Cullen&lt;/font&gt;&lt;/span&gt;&lt;/div&gt;&lt;/div&gt;" style="ellipse;whiteSpace=wrap;html=1;aspect=fixed;" vertex="1" parent="jESdNgC168ewm_s6KUY8-10">
          <mxGeometry width="120" height="120" as="geometry" />
        </mxCell>
        <mxCell id="T5YMeoS1CwWlPfgrnYPT-41" style="edgeStyle=orthogonalEdgeStyle;rounded=0;orthogonalLoop=1;jettySize=auto;html=1;" edge="1" parent="jESdNgC168ewm_s6KUY8-10" source="jESdNgC168ewm_s6KUY8-12">
          <mxGeometry relative="1" as="geometry">
            <mxPoint x="60" y="-90" as="targetPoint" />
          </mxGeometry>
        </mxCell>
        <mxCell id="jESdNgC168ewm_s6KUY8-12" value="10" style="ellipse;whiteSpace=wrap;html=1;aspect=fixed;" vertex="1" parent="jESdNgC168ewm_s6KUY8-10">
          <mxGeometry x="37.5" width="45" height="45" as="geometry" />
        </mxCell>
        <mxCell id="jESdNgC168ewm_s6KUY8-13" value="" style="group" vertex="1" connectable="0" parent="1">
          <mxGeometry x="480" y="280" width="120" height="120" as="geometry" />
        </mxCell>
        <mxCell id="jESdNgC168ewm_s6KUY8-14" value="&lt;div style=&quot;font-family: Menlo, Monaco, &amp;quot;Courier New&amp;quot;, monospace; line-height: 18px; white-space: pre;&quot;&gt;&lt;div style=&quot;line-height: 18px;&quot;&gt;&lt;span&gt;&lt;font style=&quot;color: rgb(0, 0, 0);&quot;&gt;Jane&lt;/font&gt;&lt;/span&gt;&lt;/div&gt;&lt;/div&gt;" style="ellipse;whiteSpace=wrap;html=1;aspect=fixed;" vertex="1" parent="jESdNgC168ewm_s6KUY8-13">
          <mxGeometry width="120" height="120" as="geometry" />
        </mxCell>
        <mxCell id="jESdNgC168ewm_s6KUY8-15" value="8" style="ellipse;whiteSpace=wrap;html=1;aspect=fixed;" vertex="1" parent="jESdNgC168ewm_s6KUY8-13">
          <mxGeometry x="37.5" width="45" height="45" as="geometry" />
        </mxCell>
        <mxCell id="jESdNgC168ewm_s6KUY8-16" value="" style="group" vertex="1" connectable="0" parent="1">
          <mxGeometry x="349" y="600" width="120" height="120" as="geometry" />
        </mxCell>
        <mxCell id="jESdNgC168ewm_s6KUY8-17" value="&lt;div style=&quot;font-family: Menlo, Monaco, &amp;quot;Courier New&amp;quot;, monospace; line-height: 18px; white-space: pre;&quot;&gt;&lt;div style=&quot;line-height: 18px;&quot;&gt;&lt;span&gt;&lt;font style=&quot;color: rgb(0, 0, 0);&quot;&gt;Rosalie Hale&lt;/font&gt;&lt;/span&gt;&lt;/div&gt;&lt;/div&gt;" style="ellipse;whiteSpace=wrap;html=1;aspect=fixed;" vertex="1" parent="jESdNgC168ewm_s6KUY8-16">
          <mxGeometry width="120" height="120" as="geometry" />
        </mxCell>
        <mxCell id="jESdNgC168ewm_s6KUY8-18" value="9" style="ellipse;whiteSpace=wrap;html=1;aspect=fixed;" vertex="1" parent="jESdNgC168ewm_s6KUY8-16">
          <mxGeometry x="37.5" width="45" height="45" as="geometry" />
        </mxCell>
        <mxCell id="jESdNgC168ewm_s6KUY8-19" value="" style="group" vertex="1" connectable="0" parent="1">
          <mxGeometry x="99" y="860" width="120" height="120" as="geometry" />
        </mxCell>
        <mxCell id="T5YMeoS1CwWlPfgrnYPT-39" style="edgeStyle=orthogonalEdgeStyle;rounded=0;orthogonalLoop=1;jettySize=auto;html=1;" edge="1" parent="jESdNgC168ewm_s6KUY8-19" source="jESdNgC168ewm_s6KUY8-20">
          <mxGeometry relative="1" as="geometry">
            <mxPoint x="-30" y="-80" as="targetPoint" />
          </mxGeometry>
        </mxCell>
        <mxCell id="jESdNgC168ewm_s6KUY8-20" value="&lt;div style=&quot;font-family: Menlo, Monaco, &amp;quot;Courier New&amp;quot;, monospace; line-height: 18px; white-space: pre;&quot;&gt;&lt;div style=&quot;line-height: 18px;&quot;&gt;&lt;font style=&quot;color: rgb(0, 0, 0);&quot;&gt;Carlisle Cullen&lt;/font&gt;&lt;/div&gt;&lt;/div&gt;" style="ellipse;whiteSpace=wrap;html=1;aspect=fixed;" vertex="1" parent="jESdNgC168ewm_s6KUY8-19">
          <mxGeometry width="120" height="120" as="geometry" />
        </mxCell>
        <mxCell id="jESdNgC168ewm_s6KUY8-21" value="6" style="ellipse;whiteSpace=wrap;html=1;aspect=fixed;" vertex="1" parent="jESdNgC168ewm_s6KUY8-19">
          <mxGeometry x="37.5" width="45" height="45" as="geometry" />
        </mxCell>
        <mxCell id="jESdNgC168ewm_s6KUY8-25" value="" style="group" vertex="1" connectable="0" parent="1">
          <mxGeometry x="529" y="830" width="120" height="120" as="geometry" />
        </mxCell>
        <mxCell id="jESdNgC168ewm_s6KUY8-26" value="&lt;div style=&quot;font-family: Menlo, Monaco, &amp;quot;Courier New&amp;quot;, monospace; line-height: 18px; white-space: pre;&quot;&gt;&lt;div style=&quot;line-height: 18px;&quot;&gt;&lt;font style=&quot;color: rgb(0, 0, 0);&quot;&gt;Renesmee Cullen&lt;/font&gt;&lt;/div&gt;&lt;/div&gt;" style="ellipse;whiteSpace=wrap;html=1;aspect=fixed;" vertex="1" parent="jESdNgC168ewm_s6KUY8-25">
          <mxGeometry width="120" height="120" as="geometry" />
        </mxCell>
        <mxCell id="jESdNgC168ewm_s6KUY8-27" value="7" style="ellipse;whiteSpace=wrap;html=1;aspect=fixed;" vertex="1" parent="jESdNgC168ewm_s6KUY8-25">
          <mxGeometry x="37.5" width="45" height="45" as="geometry" />
        </mxCell>
        <mxCell id="jESdNgC168ewm_s6KUY8-28" value="" style="group" vertex="1" connectable="0" parent="1">
          <mxGeometry x="40" y="280" width="120" height="120" as="geometry" />
        </mxCell>
        <mxCell id="jESdNgC168ewm_s6KUY8-29" value="&lt;div style=&quot;font-family: Menlo, Monaco, &amp;quot;Courier New&amp;quot;, monospace; line-height: 18px; white-space: pre;&quot;&gt;&lt;div style=&quot;line-height: 18px;&quot;&gt;&lt;span&gt;&lt;font style=&quot;color: rgb(0, 0, 0);&quot;&gt;Aro&lt;/font&gt;&lt;/span&gt;&lt;/div&gt;&lt;/div&gt;" style="ellipse;whiteSpace=wrap;html=1;aspect=fixed;" vertex="1" parent="jESdNgC168ewm_s6KUY8-28">
          <mxGeometry width="120" height="120" as="geometry" />
        </mxCell>
        <mxCell id="jESdNgC168ewm_s6KUY8-30" value="5" style="ellipse;whiteSpace=wrap;html=1;aspect=fixed;" vertex="1" parent="jESdNgC168ewm_s6KUY8-28">
          <mxGeometry x="37.5" width="45" height="45" as="geometry" />
        </mxCell>
        <mxCell id="T5YMeoS1CwWlPfgrnYPT-1" value="" style="group" vertex="1" connectable="0" parent="1">
          <mxGeometry x="240" y="280" width="120" height="120" as="geometry" />
        </mxCell>
        <mxCell id="T5YMeoS1CwWlPfgrnYPT-2" value="&lt;div style=&quot;font-family: Menlo, Monaco, &amp;quot;Courier New&amp;quot;, monospace; line-height: 18px; white-space: pre;&quot;&gt;&lt;font style=&quot;color: rgb(0, 0, 0);&quot;&gt;Aro&#39;s ring&lt;/font&gt;&lt;/div&gt;" style="whiteSpace=wrap;html=1;aspect=fixed;" vertex="1" parent="T5YMeoS1CwWlPfgrnYPT-1">
          <mxGeometry width="120" height="120" as="geometry" />
        </mxCell>
        <mxCell id="T5YMeoS1CwWlPfgrnYPT-3" value="1" style="whiteSpace=wrap;html=1;aspect=fixed;" vertex="1" parent="T5YMeoS1CwWlPfgrnYPT-1">
          <mxGeometry x="40" width="40" height="40" as="geometry" />
        </mxCell>
        <mxCell id="T5YMeoS1CwWlPfgrnYPT-4" value="" style="group" vertex="1" connectable="0" parent="1">
          <mxGeometry x="240" y="80" width="120" height="120" as="geometry" />
        </mxCell>
        <mxCell id="T5YMeoS1CwWlPfgrnYPT-5" value="&lt;div style=&quot;font-family: Menlo, Monaco, &amp;quot;Courier New&amp;quot;, monospace; line-height: 18px; white-space: pre;&quot;&gt;&lt;div style=&quot;line-height: 18px;&quot;&gt;&lt;font style=&quot;font-size: 11px; color: rgb(0, 0, 0);&quot;&gt;&lt;span&gt;Bella&lt;/span&gt;&lt;span&gt;&#39;&lt;/span&gt;&lt;span&gt;s shield&lt;/span&gt;&lt;/font&gt;&lt;/div&gt;&lt;/div&gt;" style="whiteSpace=wrap;html=1;aspect=fixed;" vertex="1" parent="T5YMeoS1CwWlPfgrnYPT-4">
          <mxGeometry width="120" height="120" as="geometry" />
        </mxCell>
        <mxCell id="T5YMeoS1CwWlPfgrnYPT-6" value="2" style="whiteSpace=wrap;html=1;aspect=fixed;" vertex="1" parent="T5YMeoS1CwWlPfgrnYPT-4">
          <mxGeometry x="40" width="40" height="40" as="geometry" />
        </mxCell>
        <mxCell id="T5YMeoS1CwWlPfgrnYPT-7" value="" style="group" vertex="1" connectable="0" parent="1">
          <mxGeometry x="349" y="830" width="120" height="120" as="geometry" />
        </mxCell>
        <mxCell id="T5YMeoS1CwWlPfgrnYPT-8" value="&lt;div style=&quot;font-family: Menlo, Monaco, &amp;quot;Courier New&amp;quot;, monospace; line-height: 18px; white-space: pre;&quot;&gt;&lt;div style=&quot;line-height: 18px;&quot;&gt;&lt;span&gt;&lt;font style=&quot;color: rgb(0, 0, 0);&quot;&gt;&lt;br&gt;&lt;/font&gt;&lt;/span&gt;&lt;/div&gt;&lt;div style=&quot;line-height: 18px;&quot;&gt;&lt;span&gt;&lt;font style=&quot;color: rgb(0, 0, 0);&quot;&gt;Cullen family&lt;br&gt;crest&lt;/font&gt;&lt;/span&gt;&lt;/div&gt;&lt;/div&gt;" style="whiteSpace=wrap;html=1;aspect=fixed;" vertex="1" parent="T5YMeoS1CwWlPfgrnYPT-7">
          <mxGeometry width="120" height="120" as="geometry" />
        </mxCell>
        <mxCell id="T5YMeoS1CwWlPfgrnYPT-9" value="3" style="whiteSpace=wrap;html=1;aspect=fixed;" vertex="1" parent="T5YMeoS1CwWlPfgrnYPT-7">
          <mxGeometry x="40" width="40" height="40" as="geometry" />
        </mxCell>
        <mxCell id="T5YMeoS1CwWlPfgrnYPT-10" value="" style="group" vertex="1" connectable="0" parent="1">
          <mxGeometry x="680" y="80" width="120" height="120" as="geometry" />
        </mxCell>
        <mxCell id="T5YMeoS1CwWlPfgrnYPT-11" value="&lt;div style=&quot;font-family: Menlo, Monaco, &amp;quot;Courier New&amp;quot;, monospace; line-height: 18px; white-space: pre;&quot;&gt;&lt;div style=&quot;line-height: 18px;&quot;&gt;&lt;span&gt;&lt;font style=&quot;color: rgb(0, 0, 0);&quot;&gt;Jacob&#39;s charm&lt;/font&gt;&lt;/span&gt;&lt;/div&gt;&lt;/div&gt;" style="whiteSpace=wrap;html=1;aspect=fixed;" vertex="1" parent="T5YMeoS1CwWlPfgrnYPT-10">
          <mxGeometry width="120" height="120" as="geometry" />
        </mxCell>
        <mxCell id="T5YMeoS1CwWlPfgrnYPT-12" value="4" style="whiteSpace=wrap;html=1;aspect=fixed;" vertex="1" parent="T5YMeoS1CwWlPfgrnYPT-10">
          <mxGeometry x="40" width="40" height="40" as="geometry" />
        </mxCell>
        <mxCell id="T5YMeoS1CwWlPfgrnYPT-13" value="" style="group" vertex="1" connectable="0" parent="1">
          <mxGeometry x="699" y="750" width="120" height="120" as="geometry" />
        </mxCell>
        <mxCell id="T5YMeoS1CwWlPfgrnYPT-14" value="&lt;div style=&quot;font-family: Menlo, Monaco, &amp;quot;Courier New&amp;quot;, monospace; line-height: 18px; white-space: pre;&quot;&gt;&lt;div style=&quot;line-height: 18px;&quot;&gt;&lt;span&gt;&lt;font style=&quot;color: rgb(0, 0, 0);&quot;&gt;&lt;br&gt;&lt;/font&gt;&lt;/span&gt;&lt;/div&gt;&lt;div style=&quot;line-height: 18px;&quot;&gt;&lt;span&gt;&lt;font style=&quot;color: rgb(0, 0, 0);&quot;&gt;Renesmee&#39;s&lt;br&gt;locket&lt;/font&gt;&lt;/span&gt;&lt;/div&gt;&lt;/div&gt;" style="whiteSpace=wrap;html=1;aspect=fixed;" vertex="1" parent="T5YMeoS1CwWlPfgrnYPT-13">
          <mxGeometry width="120" height="120" as="geometry" />
        </mxCell>
        <mxCell id="T5YMeoS1CwWlPfgrnYPT-15" value="5" style="whiteSpace=wrap;html=1;aspect=fixed;" vertex="1" parent="T5YMeoS1CwWlPfgrnYPT-13">
          <mxGeometry x="40" width="40" height="40" as="geometry" />
        </mxCell>
        <mxCell id="T5YMeoS1CwWlPfgrnYPT-16" value="" style="group" vertex="1" connectable="0" parent="1">
          <mxGeometry x="9" y="660" width="120" height="120" as="geometry" />
        </mxCell>
        <mxCell id="T5YMeoS1CwWlPfgrnYPT-17" value="&lt;div style=&quot;font-family: Menlo, Monaco, &amp;quot;Courier New&amp;quot;, monospace; line-height: 18px; white-space: pre;&quot;&gt;&lt;div style=&quot;line-height: 18px;&quot;&gt;&lt;span&gt;&lt;font style=&quot;color: rgb(0, 0, 0);&quot;&gt;Carlisle&#39;s ring&lt;/font&gt;&lt;/span&gt;&lt;/div&gt;&lt;/div&gt;" style="whiteSpace=wrap;html=1;aspect=fixed;" vertex="1" parent="T5YMeoS1CwWlPfgrnYPT-16">
          <mxGeometry width="120" height="120" as="geometry" />
        </mxCell>
        <mxCell id="T5YMeoS1CwWlPfgrnYPT-18" value="6" style="whiteSpace=wrap;html=1;aspect=fixed;" vertex="1" parent="T5YMeoS1CwWlPfgrnYPT-16">
          <mxGeometry x="40" width="40" height="40" as="geometry" />
        </mxCell>
        <mxCell id="T5YMeoS1CwWlPfgrnYPT-19" value="" style="group" vertex="1" connectable="0" parent="1">
          <mxGeometry x="689" y="1000" width="120" height="120" as="geometry" />
        </mxCell>
        <mxCell id="T5YMeoS1CwWlPfgrnYPT-20" value="&lt;div style=&quot;font-family: Menlo, Monaco, &amp;quot;Courier New&amp;quot;, monospace; line-height: 18px; white-space: pre;&quot;&gt;&lt;div style=&quot;line-height: 18px;&quot;&gt;&lt;span&gt;&lt;font style=&quot;color: rgb(0, 0, 0);&quot;&gt;&lt;br&gt;&lt;/font&gt;&lt;/span&gt;&lt;/div&gt;&lt;div style=&quot;line-height: 18px;&quot;&gt;&lt;span&gt;&lt;font style=&quot;color: rgb(0, 0, 0);&quot;&gt;Alice&#39;s vision&lt;br&gt;pendant&lt;/font&gt;&lt;/span&gt;&lt;/div&gt;&lt;/div&gt;" style="whiteSpace=wrap;html=1;aspect=fixed;" vertex="1" parent="T5YMeoS1CwWlPfgrnYPT-19">
          <mxGeometry width="120" height="120" as="geometry" />
        </mxCell>
        <mxCell id="T5YMeoS1CwWlPfgrnYPT-21" value="7" style="whiteSpace=wrap;html=1;aspect=fixed;" vertex="1" parent="T5YMeoS1CwWlPfgrnYPT-19">
          <mxGeometry x="40" width="40" height="40" as="geometry" />
        </mxCell>
        <mxCell id="T5YMeoS1CwWlPfgrnYPT-22" value="" style="group" vertex="1" connectable="0" parent="1">
          <mxGeometry x="680" y="280" width="120" height="120" as="geometry" />
        </mxCell>
        <mxCell id="T5YMeoS1CwWlPfgrnYPT-23" value="&lt;div style=&quot;font-family: Menlo, Monaco, &amp;quot;Courier New&amp;quot;, monospace; line-height: 18px; white-space: pre;&quot;&gt;&lt;div style=&quot;line-height: 18px;&quot;&gt;&lt;span&gt;&lt;font style=&quot;color: rgb(0, 0, 0);&quot;&gt;&lt;br&gt;&lt;/font&gt;&lt;/span&gt;&lt;/div&gt;&lt;div style=&quot;line-height: 18px;&quot;&gt;&lt;span&gt;&lt;font style=&quot;color: rgb(0, 0, 0);&quot;&gt;Jane&#39;s cloak&lt;br&gt;pin&lt;/font&gt;&lt;/span&gt;&lt;/div&gt;&lt;/div&gt;" style="whiteSpace=wrap;html=1;aspect=fixed;" vertex="1" parent="T5YMeoS1CwWlPfgrnYPT-22">
          <mxGeometry width="120" height="120" as="geometry" />
        </mxCell>
        <mxCell id="T5YMeoS1CwWlPfgrnYPT-24" value="8" style="whiteSpace=wrap;html=1;aspect=fixed;" vertex="1" parent="T5YMeoS1CwWlPfgrnYPT-22">
          <mxGeometry x="40" width="40" height="40" as="geometry" />
        </mxCell>
        <mxCell id="T5YMeoS1CwWlPfgrnYPT-25" value="" style="group" vertex="1" connectable="0" parent="1">
          <mxGeometry x="169" y="490" width="120" height="120" as="geometry" />
        </mxCell>
        <mxCell id="T5YMeoS1CwWlPfgrnYPT-26" value="&lt;div style=&quot;font-family: Menlo, Monaco, &amp;quot;Courier New&amp;quot;, monospace; line-height: 18px; white-space: pre;&quot;&gt;&lt;div style=&quot;line-height: 18px;&quot;&gt;&lt;span&gt;&lt;font style=&quot;color: rgb(0, 0, 0);&quot;&gt;Emmett&#39;s chain&lt;/font&gt;&lt;/span&gt;&lt;/div&gt;&lt;/div&gt;" style="whiteSpace=wrap;html=1;aspect=fixed;" vertex="1" parent="T5YMeoS1CwWlPfgrnYPT-25">
          <mxGeometry width="120" height="120" as="geometry" />
        </mxCell>
        <mxCell id="T5YMeoS1CwWlPfgrnYPT-27" value="9" style="whiteSpace=wrap;html=1;aspect=fixed;" vertex="1" parent="T5YMeoS1CwWlPfgrnYPT-25">
          <mxGeometry x="40" width="40" height="40" as="geometry" />
        </mxCell>
        <mxCell id="T5YMeoS1CwWlPfgrnYPT-28" value="" style="group" vertex="1" connectable="0" parent="1">
          <mxGeometry x="589" y="600" width="120" height="120" as="geometry" />
        </mxCell>
        <mxCell id="T5YMeoS1CwWlPfgrnYPT-29" value="&lt;div style=&quot;font-family: Menlo, Monaco, &amp;quot;Courier New&amp;quot;, monospace; line-height: 18px; white-space: pre;&quot;&gt;&lt;div style=&quot;line-height: 18px;&quot;&gt;&lt;span&gt;&lt;font style=&quot;color: rgb(0, 0, 0);&quot;&gt;&lt;br&gt;&lt;/font&gt;&lt;/span&gt;&lt;/div&gt;&lt;div style=&quot;line-height: 18px;&quot;&gt;&lt;span&gt;&lt;font style=&quot;color: rgb(0, 0, 0);&quot;&gt;Rosalie&#39;s&lt;br&gt;mirror&lt;/font&gt;&lt;/span&gt;&lt;/div&gt;&lt;/div&gt;" style="whiteSpace=wrap;html=1;aspect=fixed;" vertex="1" parent="T5YMeoS1CwWlPfgrnYPT-28">
          <mxGeometry width="120" height="120" as="geometry" />
        </mxCell>
        <mxCell id="T5YMeoS1CwWlPfgrnYPT-30" value="10" style="whiteSpace=wrap;html=1;aspect=fixed;" vertex="1" parent="T5YMeoS1CwWlPfgrnYPT-28">
          <mxGeometry x="40" width="40" height="40" as="geometry" />
        </mxCell>
        <mxCell id="jESdNgC168ewm_s6KUY8-22" value="" style="group" vertex="1" connectable="0" parent="1">
          <mxGeometry x="489" y="1010" width="120" height="120" as="geometry" />
        </mxCell>
        <mxCell id="jESdNgC168ewm_s6KUY8-23" value="&lt;div style=&quot;font-family: Menlo, Monaco, &amp;quot;Courier New&amp;quot;, monospace; line-height: 18px; white-space: pre;&quot;&gt;&lt;div style=&quot;line-height: 18px;&quot;&gt;&lt;span&gt;&lt;font style=&quot;color: rgb(0, 0, 0);&quot;&gt;Alice Cullen&lt;/font&gt;&lt;/span&gt;&lt;/div&gt;&lt;/div&gt;" style="ellipse;whiteSpace=wrap;html=1;aspect=fixed;" vertex="1" parent="jESdNgC168ewm_s6KUY8-22">
          <mxGeometry width="120" height="120" as="geometry" />
        </mxCell>
        <mxCell id="jESdNgC168ewm_s6KUY8-24" value="4" style="ellipse;whiteSpace=wrap;html=1;aspect=fixed;" vertex="1" parent="jESdNgC168ewm_s6KUY8-22">
          <mxGeometry x="37.5" width="45" height="45" as="geometry" />
        </mxCell>
        <mxCell id="T5YMeoS1CwWlPfgrnYPT-35" style="edgeStyle=orthogonalEdgeStyle;rounded=0;orthogonalLoop=1;jettySize=auto;html=1;entryX=0;entryY=0.5;entryDx=0;entryDy=0;" edge="1" parent="1" source="jESdNgC168ewm_s6KUY8-23" target="T5YMeoS1CwWlPfgrnYPT-20">
          <mxGeometry relative="1" as="geometry" />
        </mxCell>
        <mxCell id="T5YMeoS1CwWlPfgrnYPT-36" style="edgeStyle=orthogonalEdgeStyle;rounded=0;orthogonalLoop=1;jettySize=auto;html=1;entryX=0;entryY=0.5;entryDx=0;entryDy=0;" edge="1" parent="1" source="jESdNgC168ewm_s6KUY8-26" target="T5YMeoS1CwWlPfgrnYPT-14">
          <mxGeometry relative="1" as="geometry" />
        </mxCell>
        <mxCell id="T5YMeoS1CwWlPfgrnYPT-37" style="edgeStyle=orthogonalEdgeStyle;rounded=0;orthogonalLoop=1;jettySize=auto;html=1;entryX=0.354;entryY=0.994;entryDx=0;entryDy=0;entryPerimeter=0;" edge="1" parent="1" source="jESdNgC168ewm_s6KUY8-2" target="T5YMeoS1CwWlPfgrnYPT-8">
          <mxGeometry relative="1" as="geometry" />
        </mxCell>
        <mxCell id="T5YMeoS1CwWlPfgrnYPT-38" style="edgeStyle=orthogonalEdgeStyle;rounded=0;orthogonalLoop=1;jettySize=auto;html=1;entryX=0;entryY=0.5;entryDx=0;entryDy=0;" edge="1" parent="1" source="jESdNgC168ewm_s6KUY8-20" target="T5YMeoS1CwWlPfgrnYPT-8">
          <mxGeometry relative="1" as="geometry" />
        </mxCell>
        <mxCell id="T5YMeoS1CwWlPfgrnYPT-40" style="edgeStyle=orthogonalEdgeStyle;rounded=0;orthogonalLoop=1;jettySize=auto;html=1;entryX=1;entryY=0.5;entryDx=0;entryDy=0;" edge="1" parent="1" source="jESdNgC168ewm_s6KUY8-26" target="T5YMeoS1CwWlPfgrnYPT-8">
          <mxGeometry relative="1" as="geometry" />
        </mxCell>
        <mxCell id="T5YMeoS1CwWlPfgrnYPT-42" style="edgeStyle=orthogonalEdgeStyle;rounded=0;orthogonalLoop=1;jettySize=auto;html=1;entryX=-0.007;entryY=0.336;entryDx=0;entryDy=0;entryPerimeter=0;" edge="1" parent="1" source="jESdNgC168ewm_s6KUY8-11" target="T5YMeoS1CwWlPfgrnYPT-8">
          <mxGeometry relative="1" as="geometry" />
        </mxCell>
        <mxCell id="T5YMeoS1CwWlPfgrnYPT-44" style="edgeStyle=orthogonalEdgeStyle;rounded=0;orthogonalLoop=1;jettySize=auto;html=1;entryX=0.75;entryY=1;entryDx=0;entryDy=0;" edge="1" parent="1" source="jESdNgC168ewm_s6KUY8-23" target="T5YMeoS1CwWlPfgrnYPT-8">
          <mxGeometry relative="1" as="geometry" />
        </mxCell>
        <mxCell id="T5YMeoS1CwWlPfgrnYPT-45" style="edgeStyle=orthogonalEdgeStyle;rounded=0;orthogonalLoop=1;jettySize=auto;html=1;entryX=0.5;entryY=0;entryDx=0;entryDy=0;" edge="1" parent="1" source="jESdNgC168ewm_s6KUY8-17" target="T5YMeoS1CwWlPfgrnYPT-9">
          <mxGeometry relative="1" as="geometry" />
        </mxCell>
        <mxCell id="T5YMeoS1CwWlPfgrnYPT-47" style="edgeStyle=orthogonalEdgeStyle;rounded=0;orthogonalLoop=1;jettySize=auto;html=1;entryX=0;entryY=0.5;entryDx=0;entryDy=0;" edge="1" parent="1" source="jESdNgC168ewm_s6KUY8-17" target="T5YMeoS1CwWlPfgrnYPT-29">
          <mxGeometry relative="1" as="geometry" />
        </mxCell>
        <mxCell id="T5YMeoS1CwWlPfgrnYPT-52" style="edgeStyle=orthogonalEdgeStyle;rounded=0;orthogonalLoop=1;jettySize=auto;html=1;entryX=0;entryY=0.5;entryDx=0;entryDy=0;" edge="1" parent="1" source="jESdNgC168ewm_s6KUY8-5" target="T5YMeoS1CwWlPfgrnYPT-5">
          <mxGeometry relative="1" as="geometry" />
        </mxCell>
        <mxCell id="T5YMeoS1CwWlPfgrnYPT-53" style="edgeStyle=orthogonalEdgeStyle;rounded=0;orthogonalLoop=1;jettySize=auto;html=1;entryX=0;entryY=0.5;entryDx=0;entryDy=0;" edge="1" parent="1" source="jESdNgC168ewm_s6KUY8-29" target="T5YMeoS1CwWlPfgrnYPT-2">
          <mxGeometry relative="1" as="geometry" />
        </mxCell>
        <mxCell id="T5YMeoS1CwWlPfgrnYPT-54" style="edgeStyle=orthogonalEdgeStyle;rounded=0;orthogonalLoop=1;jettySize=auto;html=1;entryX=0;entryY=0.5;entryDx=0;entryDy=0;" edge="1" parent="1" source="jESdNgC168ewm_s6KUY8-8" target="T5YMeoS1CwWlPfgrnYPT-11">
          <mxGeometry relative="1" as="geometry" />
        </mxCell>
        <mxCell id="T5YMeoS1CwWlPfgrnYPT-55" style="edgeStyle=orthogonalEdgeStyle;rounded=0;orthogonalLoop=1;jettySize=auto;html=1;exitX=1;exitY=0.5;exitDx=0;exitDy=0;entryX=0;entryY=0.5;entryDx=0;entryDy=0;" edge="1" parent="1" source="jESdNgC168ewm_s6KUY8-14" target="T5YMeoS1CwWlPfgrnYPT-23">
          <mxGeometry relative="1" as="geometry" />
        </mxCell>
      </root>
    </mxGraphModel>
  </diagram>
  <diagram id="kb3XJuLqDGPXE_5KrOmn" name="Fought(Битвы)">
    <mxGraphModel dx="940" dy="1355" grid="1" gridSize="10" guides="1" tooltips="1" connect="1" arrows="1" fold="1" page="1" pageScale="1" pageWidth="827" pageHeight="1169" math="0" shadow="0">
      <root>
        <mxCell id="0" />
        <mxCell id="1" parent="0" />
        <mxCell id="KOVV6cfVyJtMVHaA4e3K-1" value="" style="group" vertex="1" connectable="0" parent="1">
          <mxGeometry x="50" y="60" width="120" height="120" as="geometry" />
        </mxCell>
        <mxCell id="KOVV6cfVyJtMVHaA4e3K-2" value="&lt;div style=&quot;font-family: Menlo, Monaco, &amp;quot;Courier New&amp;quot;, monospace; line-height: 18px; white-space: pre;&quot;&gt;&lt;span&gt;&lt;font style=&quot;color: rgb(0, 0, 0);&quot;&gt;Edward Cullen&lt;/font&gt;&lt;/span&gt;&lt;/div&gt;" style="ellipse;whiteSpace=wrap;html=1;aspect=fixed;" vertex="1" parent="KOVV6cfVyJtMVHaA4e3K-1">
          <mxGeometry width="120" height="120" as="geometry" />
        </mxCell>
        <mxCell id="KOVV6cfVyJtMVHaA4e3K-3" value="1" style="ellipse;whiteSpace=wrap;html=1;aspect=fixed;" vertex="1" parent="KOVV6cfVyJtMVHaA4e3K-1">
          <mxGeometry x="37.5" width="45" height="45" as="geometry" />
        </mxCell>
        <mxCell id="KOVV6cfVyJtMVHaA4e3K-4" value="" style="group" vertex="1" connectable="0" parent="1">
          <mxGeometry x="240" y="60" width="120" height="120" as="geometry" />
        </mxCell>
        <mxCell id="KOVV6cfVyJtMVHaA4e3K-5" value="&lt;div style=&quot;font-family: Menlo, Monaco, &amp;quot;Courier New&amp;quot;, monospace; line-height: 18px; white-space: pre;&quot;&gt;&lt;div style=&quot;line-height: 18px;&quot;&gt;&lt;span&gt;&lt;font style=&quot;color: rgb(0, 0, 0);&quot;&gt;Jacob Black&lt;/font&gt;&lt;/span&gt;&lt;/div&gt;&lt;/div&gt;" style="ellipse;whiteSpace=wrap;html=1;aspect=fixed;" vertex="1" parent="KOVV6cfVyJtMVHaA4e3K-4">
          <mxGeometry width="120" height="120" as="geometry" />
        </mxCell>
        <mxCell id="KOVV6cfVyJtMVHaA4e3K-6" value="3" style="ellipse;whiteSpace=wrap;html=1;aspect=fixed;" vertex="1" parent="KOVV6cfVyJtMVHaA4e3K-4">
          <mxGeometry x="37.5" width="45" height="45" as="geometry" />
        </mxCell>
        <mxCell id="KOVV6cfVyJtMVHaA4e3K-7" value="" style="group" vertex="1" connectable="0" parent="1">
          <mxGeometry x="360" y="250" width="120" height="120" as="geometry" />
        </mxCell>
        <mxCell id="KOVV6cfVyJtMVHaA4e3K-8" value="&lt;div style=&quot;font-family: Menlo, Monaco, &amp;quot;Courier New&amp;quot;, monospace; line-height: 18px; white-space: pre;&quot;&gt;&lt;div style=&quot;line-height: 18px;&quot;&gt;&lt;span&gt;&lt;font style=&quot;color: rgb(0, 0, 0);&quot;&gt;Jane&lt;/font&gt;&lt;/span&gt;&lt;/div&gt;&lt;/div&gt;" style="ellipse;whiteSpace=wrap;html=1;aspect=fixed;" vertex="1" parent="KOVV6cfVyJtMVHaA4e3K-7">
          <mxGeometry width="120" height="120" as="geometry" />
        </mxCell>
        <mxCell id="KOVV6cfVyJtMVHaA4e3K-9" value="8" style="ellipse;whiteSpace=wrap;html=1;aspect=fixed;" vertex="1" parent="KOVV6cfVyJtMVHaA4e3K-7">
          <mxGeometry x="37.5" width="45" height="45" as="geometry" />
        </mxCell>
        <mxCell id="KOVV6cfVyJtMVHaA4e3K-10" value="" style="group" vertex="1" connectable="0" parent="1">
          <mxGeometry x="480" y="60" width="120" height="120" as="geometry" />
        </mxCell>
        <mxCell id="KOVV6cfVyJtMVHaA4e3K-11" value="&lt;div style=&quot;font-family: Menlo, Monaco, &amp;quot;Courier New&amp;quot;, monospace; line-height: 18px; white-space: pre;&quot;&gt;&lt;div style=&quot;line-height: 18px;&quot;&gt;&lt;span&gt;&lt;font style=&quot;color: rgb(0, 0, 0);&quot;&gt;Alice Cullen&lt;/font&gt;&lt;/span&gt;&lt;/div&gt;&lt;/div&gt;" style="ellipse;whiteSpace=wrap;html=1;aspect=fixed;" vertex="1" parent="KOVV6cfVyJtMVHaA4e3K-10">
          <mxGeometry width="120" height="120" as="geometry" />
        </mxCell>
        <mxCell id="KOVV6cfVyJtMVHaA4e3K-12" value="4" style="ellipse;whiteSpace=wrap;html=1;aspect=fixed;" vertex="1" parent="KOVV6cfVyJtMVHaA4e3K-10">
          <mxGeometry x="37.5" width="45" height="45" as="geometry" />
        </mxCell>
        <mxCell id="KOVV6cfVyJtMVHaA4e3K-13" value="" style="group" vertex="1" connectable="0" parent="1">
          <mxGeometry x="50" y="250" width="120" height="120" as="geometry" />
        </mxCell>
        <mxCell id="KOVV6cfVyJtMVHaA4e3K-14" value="&lt;div style=&quot;font-family: Menlo, Monaco, &amp;quot;Courier New&amp;quot;, monospace; line-height: 18px; white-space: pre;&quot;&gt;&lt;div style=&quot;line-height: 18px;&quot;&gt;&lt;span&gt;&lt;font style=&quot;color: rgb(0, 0, 0);&quot;&gt;Aro&lt;/font&gt;&lt;/span&gt;&lt;/div&gt;&lt;/div&gt;" style="ellipse;whiteSpace=wrap;html=1;aspect=fixed;" vertex="1" parent="KOVV6cfVyJtMVHaA4e3K-13">
          <mxGeometry width="120" height="120" as="geometry" />
        </mxCell>
        <mxCell id="KOVV6cfVyJtMVHaA4e3K-15" value="5" style="ellipse;whiteSpace=wrap;html=1;aspect=fixed;" vertex="1" parent="KOVV6cfVyJtMVHaA4e3K-13">
          <mxGeometry x="37.5" width="45" height="45" as="geometry" />
        </mxCell>
        <mxCell id="KOVV6cfVyJtMVHaA4e3K-16" style="edgeStyle=orthogonalEdgeStyle;rounded=0;orthogonalLoop=1;jettySize=auto;html=1;" edge="1" parent="1" source="KOVV6cfVyJtMVHaA4e3K-2" target="KOVV6cfVyJtMVHaA4e3K-15">
          <mxGeometry relative="1" as="geometry" />
        </mxCell>
        <mxCell id="KOVV6cfVyJtMVHaA4e3K-17" style="edgeStyle=orthogonalEdgeStyle;rounded=0;orthogonalLoop=1;jettySize=auto;html=1;" edge="1" parent="1" source="KOVV6cfVyJtMVHaA4e3K-5" target="KOVV6cfVyJtMVHaA4e3K-8">
          <mxGeometry relative="1" as="geometry">
            <Array as="points">
              <mxPoint x="300" y="220" />
              <mxPoint x="420" y="220" />
            </Array>
          </mxGeometry>
        </mxCell>
        <mxCell id="KOVV6cfVyJtMVHaA4e3K-21" style="edgeStyle=orthogonalEdgeStyle;rounded=0;orthogonalLoop=1;jettySize=auto;html=1;entryX=0.5;entryY=0;entryDx=0;entryDy=0;" edge="1" parent="1" source="KOVV6cfVyJtMVHaA4e3K-11" target="KOVV6cfVyJtMVHaA4e3K-9">
          <mxGeometry relative="1" as="geometry">
            <Array as="points">
              <mxPoint x="540" y="220" />
              <mxPoint x="420" y="220" />
            </Array>
          </mxGeometry>
        </mxCell>
      </root>
    </mxGraphModel>
  </diagram>
</mxfile>
